<?xml version="1.0" encoding="UTF-8" standalone="no"?>
<!-- Created with Inkscape (http://www.inkscape.org/) -->

<svg
   width="128mm"
   height="128mm"
   viewBox="0 0 128 128"
   version="1.1"
   id="svg5"
   sodipodi:docname="アイコン.svg"
   inkscape:version="1.2.2 (b0a8486541, 2022-12-01)"
   inkscape:export-filename="アイコン.png"
   inkscape:export-xdpi="49.609375"
   inkscape:export-ydpi="49.609375"
   xml:space="preserve"
   xmlns:inkscape="http://www.inkscape.org/namespaces/inkscape"
   xmlns:sodipodi="http://sodipodi.sourceforge.net/DTD/sodipodi-0.dtd"
   xmlns="http://www.w3.org/2000/svg"
   xmlns:svg="http://www.w3.org/2000/svg"><sodipodi:namedview
     id="namedview836"
     pagecolor="#ffffff"
     bordercolor="#666666"
     borderopacity="1.0"
     inkscape:pageshadow="2"
     inkscape:pageopacity="0"
     inkscape:pagecheckerboard="0"
     inkscape:document-units="mm"
     showgrid="false"
     inkscape:zoom="1.4142136"
     inkscape:cx="183.49421"
     inkscape:cy="296.27774"
     inkscape:window-width="1450"
     inkscape:window-height="1081"
     inkscape:window-x="976"
     inkscape:window-y="151"
     inkscape:window-maximized="0"
     inkscape:current-layer="svg5"
     inkscape:showpageshadow="2"
     inkscape:deskcolor="#d1d1d1" /><defs
     id="defs2"><clipPath
       id="clip0_2_404"><rect
         width="1280"
         height="720"
         fill="white"
         id="rect261" /></clipPath><filter
       id="mask-powermask-path-effect1607_inverse"
       inkscape:label="filtermask-powermask-path-effect1607"
       style="color-interpolation-filters:sRGB"
       height="100"
       width="100"
       x="-50"
       y="-50"><feColorMatrix
         id="mask-powermask-path-effect1607_primitive1"
         values="1"
         type="saturate"
         result="fbSourceGraphic" /><feColorMatrix
         id="mask-powermask-path-effect1607_primitive2"
         values="-1 0 0 0 1 0 -1 0 0 1 0 0 -1 0 1 0 0 0 1 0 "
         in="fbSourceGraphic" /></filter><clipPath
       clipPathUnits="userSpaceOnUse"
       id="clipPath1624"><circle
         style="fill:#000000;stroke-width:0.97883"
         id="circle1626"
         cx="536.8233"
         cy="407.47021"
         r="241.88977" /></clipPath></defs><g
     style="fill:none"
     id="g398"
     transform="matrix(0.26458333,0,0,0.26458333,-78.034497,-43.809826)"
     clip-path="url(#clipPath1624)"><g
       clip-path="url(#clip0_2_404)"
       id="g259"><path
         d="M 1280,-1.33331 H 0 V 720 h 1280 z"
         fill="#e4ffc4"
         id="path9" /><path
         d="m 821.814,55.4375 c -36.738,25.8109 -9.702,78.5065 26.745,52.9055 19.643,-13.7946 -13.048,-69.249 -15.437,-67.5706 -3.207,2.2494 47.072,66.4126 62.581,29.332 22.247,-53.1627 -74.529,-100.8177 -116.866,-41.1285 -35.735,50.3925 -1.905,122.4661 50.868,129.4121 45.28,5.96 109.415,-54.207 91.415,-94.2952"
         stroke="#ffffff"
         stroke-width="25.5324"
         stroke-linejoin="round"
         id="path11" /><path
         d="m 384.778,634.061 c -18.382,-8.591 -32.951,13.861 -14.717,22.385 9.826,4.595 24.204,-20.695 23.009,-21.253 -1.603,-0.751 -15.437,33.391 2.585,31.127 25.841,-3.244 22.743,-51.894 -10.176,-55.057 -27.791,-2.667 -48.426,26.809 -39.274,49.055 7.852,19.087 45.864,30.685 57.525,14.61"
         stroke="#ffffff"
         stroke-width="11.5385"
         stroke-linecap="round"
         stroke-linejoin="round"
         id="path13" /><path
         d="m 798.257,554.414 c -1.145,-12.915 -18.227,-13.769 -17.092,-0.957 0.61,6.905 19.199,6.743 19.125,5.904 -0.099,-1.127 -23.407,2.173 -16.377,11.409 10.078,13.244 35.977,-4.068 27.17,-23.278 -7.436,-16.216 -30.345,-18.172 -39.707,-5.98 -8.033,10.46 -2.256,35.189 10.368,36.481"
         stroke="#ffffff"
         stroke-width="7.37325"
         stroke-linecap="round"
         stroke-linejoin="round"
         id="path15" /><path
         d="m 950.748,675.958 c -12.166,4.485 -8.52,21.196 3.549,16.748 6.504,-2.397 1.484,-20.296 0.692,-20.004 -1.061,0.39 8.224,22.022 15.298,12.82 10.145,-13.193 -13.341,-33.659 -29.577,-20.132 -13.705,11.422 -9.597,34.044 4.62,39.889 12.198,5.015 34.553,-7.032 32.496,-19.554"
         stroke="#ffffff"
         stroke-width="7.37325"
         stroke-linecap="round"
         stroke-linejoin="round"
         id="path17" /><path
         d="m 475.178,288.044 c -10.934,1.553 -10.894,16.121 -0.048,14.581 5.845,-0.829 4.874,-16.632 4.163,-16.531 -0.953,0.134 2.898,19.81 10.439,13.417 10.812,-9.166 -5.073,-30.417 -21.017,-22.065 -13.459,7.052 -14.095,26.624 -3.306,34.04 9.257,6.363 30.031,0.341 30.564,-10.454"
         stroke="#ffffff"
         stroke-width="6.27991"
         stroke-linecap="round"
         stroke-linejoin="round"
         id="path19" /><path
         d="m 1107.01,159.869 c 2.92,10.651 17.36,8.779 14.47,-1.787 -1.56,-5.695 -17.11,-2.743 -16.92,-2.051 0.25,0.929 19.29,-5.367 12,-12.043 -10.46,-9.574 -29.54,8.859 -19.25,23.626 8.69,12.464 28.19,10.633 34.19,-1.004 5.14,-9.984 -3.44,-29.835 -14.22,-29.005"
         stroke="#ffffff"
         stroke-width="6.27991"
         stroke-linecap="round"
         stroke-linejoin="round"
         id="path21" /><path
         d="m 53.9489,366.858 c 3.2289,24.672 36.0504,24.944 32.8499,0.469 -1.7235,-13.191 -37.3534,-11.395 -37.1434,-9.79 0.2802,2.152 44.7067,-6.04 30.4876,-23.186 -20.383,-24.588 -68.6563,10.676 -50.2334,46.806 15.5559,30.498 59.638,32.415 76.6134,8.29 14.566,-20.699 1.511,-67.654 -22.7981,-69.121"
         stroke="#ffffff"
         stroke-width="14.1498"
         stroke-linecap="round"
         stroke-linejoin="round"
         id="path23" /><path
         d="m 629.137,216.143 c -53.193,-11.982 -76.829,89.082 -7.846,89.082"
         stroke="#ffffff"
         stroke-width="15.774"
         stroke-linejoin="round"
         id="path25" /><path
         d="m 564.279,243.483 c 10.444,3.14 34.154,5.185 45.503,5.185"
         stroke="#ffffff"
         stroke-width="15.774"
         stroke-linejoin="round"
         id="path27" /><path
         d="m 558.524,262.337 c 17.259,6.124 37.196,4.24 50.734,4.24"
         stroke="#ffffff"
         stroke-width="15.774"
         stroke-linejoin="round"
         id="path29" /><path
         d="M 14.7652,242.48 C 45.6294,287.43 131.67,229.382 81.0805,182.484"
         stroke="#ffffff"
         stroke-width="15.774"
         stroke-linejoin="round"
         id="path31" /><path
         d="M 80.9169,266.523 C 75.392,257.121 59.3938,239.502 51.0713,231.787"
         stroke="#ffffff"
         stroke-width="15.774"
         stroke-linejoin="round"
         id="path33" /><path
         d="M 97.9552,256.609 C 89.4613,240.385 73.5593,228.212 63.6314,219.009"
         stroke="#ffffff"
         stroke-width="15.774"
         stroke-linejoin="round"
         id="path35" /><path
         d="m 1167.99,690.192 c 40.17,-40.233 -35.78,-117.332 -74.18,-56.506"
         stroke="#ffffff"
         stroke-width="16.4486"
         stroke-linejoin="round"
         id="path37" /><path
         d="m 1179.99,617.784 c -8.59,7.461 -23.59,27.23 -29.91,37.237"
         stroke="#ffffff"
         stroke-width="16.4486"
         stroke-linejoin="round"
         id="path39" /><path
         d="m 1166.56,602.214 c -15,11.81 -24.44,30.438 -31.98,42.375"
         stroke="#ffffff"
         stroke-width="16.4486"
         stroke-linejoin="round"
         id="path41" /><path
         d="M 193.346,662.021 C 162.153,614.484 71.1818,673.118 122.897,723.117"
         stroke="#ffffff"
         stroke-width="16.4486"
         stroke-linejoin="round"
         id="path43" /><path
         d="m 124.907,635.507 c 5.554,9.924 21.847,28.643 30.355,36.868"
         stroke="#ffffff"
         stroke-width="16.4486"
         stroke-linejoin="round"
         id="path45" /><path
         d="m 106.927,645.471 c 8.5,17.1 24.812,30.139 34.961,39.951"
         stroke="#ffffff"
         stroke-width="16.4486"
         stroke-linejoin="round"
         id="path47" /><path
         d="m 656.463,409.714 c -45.569,-34.005 -111.005,52.203 -45.31,81.503"
         stroke="#ffffff"
         stroke-width="16.4486"
         stroke-linejoin="round"
         id="path49" /><path
         d="m 583.083,408.202 c 8.612,7.426 30.324,19.444 41.132,24.264"
         stroke="#ffffff"
         stroke-width="16.4486"
         stroke-linejoin="round"
         id="path51" /><path
         d="m 569.594,423.713 c 13.835,13.163 33.622,19.837 46.515,25.587"
         stroke="#ffffff"
         stroke-width="16.4486"
         stroke-linejoin="round"
         id="path53" /><path
         d="m 873.058,515.525 c -15.602,4.727 -17.434,-22.854 -2.915,-26.242 13.147,-3.068 20.42,23.927 6.952,28.008"
         stroke="#ffffff"
         stroke-width="8.85032"
         stroke-linejoin="round"
         id="path55" /><path
         d="m 892.935,478.534 c 2.742,9.051 2.987,23.526 -1.811,37.641 -4.052,11.919 -12.492,23.878 -18.046,29.033"
         stroke="#ffffff"
         stroke-width="8.85032"
         stroke-linejoin="round"
         id="path57" /><path
         d="m 911.734,525.337 c -6.979,6.68 -15.712,-7.742 -8.311,-14.314 13.308,-11.809 27.209,7.423 12.841,17.683"
         stroke="#ffffff"
         stroke-width="8.85032"
         stroke-linejoin="round"
         id="path59" /><path
         d="m 581.596,592.867 c 5.093,11.034 -15.082,15.219 -19.076,4.847 -3.615,-9.391 15.569,-17.534 19.965,-8.009"
         stroke="#ffffff"
         stroke-width="6.59726"
         stroke-linejoin="round"
         id="path61" /><path
         d="m 552.244,581.991 c 6.4,-2.954 17.062,-4.622 27.976,-2.529 9.217,1.767 18.913,6.77 23.289,10.341"
         stroke="#ffffff"
         stroke-width="6.59726"
         stroke-linejoin="round"
         id="path63" /><path
         d="m 584.868,563.303 c 5.649,4.467 -4.102,12.396 -9.715,7.607 -10.086,-8.612 2.686,-20.852 11.737,-11.297"
         stroke="#ffffff"
         stroke-width="6.59726"
         stroke-linejoin="round"
         id="path65" /><path
         d="m 1047.17,249.242 c 37.08,-9.802 39.07,55.191 4.65,61.937 -31.16,6.108 -45.99,-57.967 -13.99,-66.427"
         stroke="#ffffff"
         stroke-width="20.8193"
         stroke-linejoin="round"
         id="path67" /><path
         d="m 997.337,334.532 c -5.686,-21.508 -5.045,-55.557 7.423,-88.336 10.52,-27.681 31.37,-55.086 44.86,-66.737"
         stroke="#ffffff"
         stroke-width="20.8193"
         stroke-linejoin="round"
         id="path69" /><path
         d="m 957.075,222.925 c 16.969,-15.119 36.287,19.521 18.336,34.348 -32.278,26.645 -63.343,-19.737 -28.702,-42.65"
         stroke="#ffffff"
         stroke-width="20.8193"
         stroke-linejoin="round"
         id="path71" /><path
         d="m 359.284,530.622 c -5.76,12.312 -23.89,-1.917 -17.904,-12.812 5.421,-9.864 26.22,0.663 21.248,11.291"
         stroke="#ffffff"
         stroke-width="7.37934"
         stroke-linejoin="round"
         id="path73" /><path
         d="m 347.41,497.683 c 7.142,3.341 16.258,11.253 22.341,22.094 5.138,9.153 7.855,21.052 7.958,27.369"
         stroke="#ffffff"
         stroke-width="7.37934"
         stroke-linejoin="round"
         id="path75" /><path
         d="m 386.918,512.095 c 0.256,8.052 -13.557,5.434 -13.51,-2.818 0.088,-14.835 19.763,-12.745 18.123,1.885"
         stroke="#ffffff"
         stroke-width="7.37934"
         stroke-linejoin="round"
         id="path77" /><path
         d="m 245.643,239.885 c -4.695,22.69 -40.373,6.246 -34.744,-14.182 5.098,-18.497 43.742,-9.245 39.69,10.341"
         stroke="#ffffff"
         stroke-width="12.5785"
         stroke-linejoin="round"
         id="path79" /><path
         d="m 212.958,189.948 c 13.162,2.723 31.4,12.247 45.764,27.823 12.13,13.153 21.33,31.812 23.993,42.247"
         stroke="#ffffff"
         stroke-width="12.5785"
         stroke-linejoin="round"
         id="path81" /><path
         d="m 284.158,198.261 c 3.601,13.251 -20.336,14.359 -23.515,0.656 -5.707,-24.635 27.746,-28.93 30.798,-4.023"
         stroke="#ffffff"
         stroke-width="12.5785"
         stroke-linejoin="round"
         id="path83" /><path
         d="M 487.905,29.3253 C 470.035,34.4295 468.45,2.95866 485.06,-0.639914 500.101,-3.8975 507.901,27.0054 492.475,31.4113"
         stroke="#ffffff"
         stroke-width="10.0893"
         stroke-linejoin="round"
         id="path85" /><path
         d="m 511.235,-12.4768 c 2.961,10.36652 2.976,26.8699 -2.75,42.8712 -4.835,13.5128 -14.673,26.9908 -21.097,32.765"
         stroke="#ffffff"
         stroke-width="10.0893"
         stroke-linejoin="round"
         id="path87" /><path
         d="m 531.812,41.2131 c -8.077,7.4877 -17.769,-9.1106 -9.214,-16.4667 15.384,-13.2189 30.88,8.9562 14.316,20.3894"
         stroke="#ffffff"
         stroke-width="10.0893"
         stroke-linejoin="round"
         id="path89" /><path
         d="m 712.989,250.334 c 12.232,9.824 -8.679,26.264 -19.259,16.574 -9.58,-8.775 7.909,-29.22 18.468,-20.74"
         stroke="#ffffff"
         stroke-width="8.51687"
         stroke-linejoin="round"
         id="path91" /><path
         d="m 672.809,254.645 c 5.699,-7.095 17.062,-15.155 30.88,-19.013 11.669,-3.258 25.753,-3.053 32.865,-1.442"
         stroke="#ffffff"
         stroke-width="8.51687"
         stroke-linejoin="round"
         id="path93" /><path
         d="m 699.767,214.284 c 9.099,1.913 2.389,16.686 -6.852,14.379 -16.611,-4.154 -8.889,-25.645 7.067,-19.808"
         stroke="#ffffff"
         stroke-width="8.51687"
         stroke-linejoin="round"
         id="path95" /><path
         d="m 1212.02,176.326 c 2.97,-6.817 -12.9,-18.785 3.78,-32.996 16.67,-14.211 23.67,25.031 19.59,40.491 -4.08,15.459 9.25,27.47 14.67,10.305 10.47,-33.147 -50.05,-33.182 -67.51,-20.711"
         stroke="#ffffff"
         stroke-width="9.69173"
         stroke-linecap="round"
         stroke-linejoin="round"
         id="path97" /><path
         d="m 237.787,303.209 c -7.671,17.352 32.625,48.128 -10.135,84.142 -42.748,36.011 -60.033,-64.229 -49.391,-103.617 10.649,-39.384 -23.181,-70.234 -37.272,-26.517 -27.214,84.426 127.224,85.424 171.956,53.864"
         stroke="#ffffff"
         stroke-width="24.7311"
         stroke-linecap="round"
         stroke-linejoin="round"
         id="path99" /><path
         d="m 1272.79,550.939 c -13.47,7.125 -3.37,46.58 -48.25,48.016 -44.88,1.439 -5.9,-70.371 20.4,-89.914 26.31,-19.537 20.33,-55.822 -10.31,-35.264 -59.16,39.697 37.73,117.164 81.64,119.518"
         stroke="#ffffff"
         stroke-width="19.8647"
         stroke-linecap="round"
         stroke-linejoin="round"
         id="path101" /><path
         d="m 686.76,137.102 c -10.856,-1.513 -21.571,25.75 -48.354,7.698 -26.779,-18.045 26.174,-43.528 49.744,-43.855 23.568,-0.323 35.348,-24.0058 8.827,-24.9087 -51.217,-1.7454 -27.305,84.2167 -2.685,104.0687"
         stroke="#ffffff"
         stroke-width="14.2878"
         stroke-linecap="round"
         stroke-linejoin="round"
         id="path103" /><path
         d="m 695.863,499.701 c 2.572,-9.619 -20.815,-22.312 -1.562,-44.45 19.247,-22.136 36.332,28.439 34.005,49.725 -2.33,21.284 17.711,34.538 21.475,10.729 7.27,-45.981 -72.889,-33.985 -93.525,-13.997"
         stroke="#ffffff"
         stroke-width="12.9789"
         stroke-linecap="round"
         stroke-linejoin="round"
         id="path105" /><path
         d="m 539.428,365.151 c -5.866,-12.069 -40.265,6.538 -46.634,11.988 -28.034,24.013 50.576,90.728 56.787,125.168 6.184,34.347 -36.279,54.548 -64.109,25.114"
         stroke="#ffffff"
         stroke-width="29.4476"
         stroke-linecap="round"
         stroke-linejoin="round"
         id="path107" /><path
         d="m 500.391,449.079 c -6.239,-23.472 -46.554,-2.579 -43.349,15.835 4.678,26.923 123.716,216.468 2.983,150.314 0,0 -21.499,-21.219 -17.322,-50.656"
         stroke="#ffffff"
         stroke-width="29.4476"
         stroke-linecap="round"
         stroke-linejoin="round"
         id="path109" /><path
         d="m 1230.87,325.215 c 7.65,0.485 8.1,-21.86 7.18,-26.562 -4.04,-20.703 -59.36,-0.417 -78.23,-7.032 -18.82,-6.603 -16.9,-33.405 5.58,-38.949"
         stroke="#ffffff"
         stroke-width="16.8278"
         stroke-linecap="round"
         stroke-linejoin="round"
         id="path111" /><path
         d="m 1200.14,282.162 c 13.43,3.511 14.4,-22.419 4.34,-26.013 -14.7,-5.26 -142.47,0.52 -75.57,-40.867 0,0 16.61,-4.71 30.07,5.66"
         stroke="#ffffff"
         stroke-width="16.8278"
         stroke-linecap="round"
         stroke-linejoin="round"
         id="path113" /><path
         d="m 290.596,57.9536 c 5.98,-0.5178 3.714,-17.8634 2.458,-21.3959 -5.542,-15.5522 -45.989,6.6011 -61.368,3.6823 -15.335,-2.9151 -16.975,-23.8834 -0.227,-30.79556"
         stroke="#ffffff"
         stroke-width="13.1714"
         stroke-linecap="round"
         stroke-linejoin="round"
         id="path115" /><path
         d="M 261.792,28.2156 C 272.593,29.367 270.32,9.1848 262.117,7.57601 250.123,5.22027 151.904,24.5975 198.859,-15.2389 c 0,0 12.304,-5.5826 23.93,0.874"
         stroke="#ffffff"
         stroke-width="13.1714"
         stroke-linecap="round"
         stroke-linejoin="round"
         id="path117" /><path
         d="m 923.775,373.144 c 1.439,2.962 9.879,-1.604 11.441,-2.941 6.878,-5.891 -12.408,-22.26 -13.932,-30.709 -1.517,-8.427 8.901,-13.383 15.729,-6.162"
         stroke="#ffffff"
         stroke-width="7.22487"
         stroke-linecap="round"
         stroke-linejoin="round"
         id="path119" /><path
         d="m 933.352,352.553 c 1.531,5.759 11.422,0.633 10.636,-3.885 -1.148,-6.606 -30.354,-53.11 -0.732,-36.879 0,0 5.275,5.206 4.25,12.428"
         stroke="#ffffff"
         stroke-width="7.22487"
         stroke-linecap="round"
         stroke-linejoin="round"
         id="path121" /><path
         d="m 210.567,689.776 c -2.252,4.371 10.759,10.375 13.757,11.047 13.199,2.95 15.507,-34.758 24.246,-44.142 8.717,-9.356 23.966,-1.336 21.444,13.29"
         stroke="#ffffff"
         stroke-width="10.7901"
         stroke-linecap="round"
         stroke-linejoin="round"
         id="path123" /><path
         d="m 243.757,682.798 c -5.515,6.984 9.466,14.222 14.164,9.238 6.87,-7.284 36.331,-83.823 43.437,-33.881 0,0 -1.504,10.965 -11.055,16.204"
         stroke="#ffffff"
         stroke-width="10.7901"
         stroke-linecap="round"
         stroke-linejoin="round"
         id="path125" /><path
         d="m 801.542,486.261 c 4.22,2.522 11.032,-10.086 11.89,-13.035 3.775,-12.987 -33.713,-17.663 -42.529,-26.975 -8.789,-9.288 0.174,-24.003 14.613,-20.565"
         stroke="#ffffff"
         stroke-width="10.7901"
         stroke-linecap="round"
         stroke-linejoin="round"
         id="path127" /><path
         d="m 796.665,452.697 c 6.624,5.943 14.79,-8.553 10.112,-13.554 -6.838,-7.315 -81.371,-41.533 -31.082,-45.483 0,0 10.849,2.19 15.476,12.053"
         stroke="#ffffff"
         stroke-width="10.7901"
         stroke-linecap="round"
         stroke-linejoin="round"
         id="path129" /><path
         d="m 932.053,599.465 c 1.924,-45.041 51.924,-77.708 90.677,-40.059 30.41,29.535 18.68,37.629 0.7,61.018 -17.99,23.385 -21.32,16.203 -8.9,53.429"
         stroke="#ffffff"
         stroke-width="30.0542"
         stroke-linejoin="round"
         id="path131" /><path
         d="m 1009.07,709.43 c -5.83,-12.877 -6.4,-16.233 11.01,-21.975 17.41,-5.736 19.76,-3.451 25.31,15.404 5.54,18.864 -7.23,16.94 -12.77,18.27 -13.13,3.168 -17.72,1.177 -23.55,-11.699 z"
         fill="#ffffff"
         stroke="#ffffff"
         stroke-width="1.40328"
         stroke-linecap="round"
         stroke-linejoin="round"
         id="path133" /><path
         d="M 149.893,24.8411 C 172.29,46.84 165.868,87.9337 128.326,90.418 98.8695,92.3719 100.151,82.5341 96.4406,62.3255 92.7365,42.115 98.004,43.7424 72.9579,32.8073"
         stroke="#ffffff"
         stroke-width="20.9294"
         stroke-linejoin="round"
         id="path135" /><path
         d="M 57.1043,13.392 C 66.481,16.3836 68.482,17.6549 63.3365,29.3321 58.1847,41.0112 55.9063,41.1616 43.5667,35.2387 31.2251,29.3095 38.177,23.5997 40.0691,20.1186 44.5544,11.8494 47.7277,10.4003 57.1043,13.392 Z"
         fill="#ffffff"
         stroke="#ffffff"
         stroke-width="0.977227"
         stroke-linecap="round"
         stroke-linejoin="round"
         id="path137" /><path
         d="m 402.08,258.282 c 8.755,15.961 -1.686,37.702 -22.946,32.801 -16.681,-3.844 -14.324,-9.091 -13.003,-20.932 1.325,-11.841 3.977,-10.056 -8.099,-20.318"
         stroke="#ffffff"
         stroke-width="12.1364"
         stroke-linejoin="round"
         id="path139" /><path
         d="m 352.478,236.401 c 4.705,3.23 5.604,4.27 0.793,9.893 -4.814,5.622 -6.104,5.325 -11.964,-0.028 -5.861,-5.357 -1.046,-7.364 0.587,-8.98 3.874,-3.841 5.878,-4.115 10.584,-0.885 z"
         fill="#ffffff"
         stroke="#ffffff"
         stroke-width="0.56667"
         stroke-linecap="round"
         stroke-linejoin="round"
         id="path141" /><path
         d="m 604.168,77.3344 c -11.859,9.7206 -31.476,4.4443 -30.711,-13.916 0.598,-14.4062 5.308,-13.2673 15.316,-14.0078 10.008,-0.7374 8.941,1.735 15.566,-9.8528"
         stroke="#ffffff"
         stroke-width="10.2222"
         stroke-linejoin="round"
         id="path143" /><path
         d="m 614.6,32.8792 c -1.946,4.396 -2.668,5.3009 -8.068,2.1891 -5.401,-3.1148 -5.354,-4.2291 -1.83,-9.91 3.527,-5.6815 5.935,-2.0059 7.526,-0.9044 3.78,2.6123 4.317,4.2293 2.372,8.6253 z"
         fill="#ffffff"
         stroke="#ffffff"
         stroke-width="0.477291"
         stroke-linecap="round"
         stroke-linejoin="round"
         id="path145" /><path
         d="m 236.812,600.351 c -0.11,-2.208 14.471,-42.388 18.964,-52.348 7.436,-16.506 10.232,-23.389 22.08,-16.174 7.446,4.533 16.835,8.355 2.614,26.517 -4.168,5.33 -8.756,12.178 -13.177,19.002 -8.906,13.741 -17.15,27.378 -20.059,28.29 -3.737,1.172 -10.371,-4.204 -10.422,-5.287 z"
         fill="#ffffff"
         stroke="#ffffff"
         stroke-width="0.864091"
         stroke-linecap="round"
         stroke-linejoin="round"
         id="path147" /><path
         d="m 225.551,618.103 c 2.854,-7.328 3.894,-8.928 11.457,-5.67 7.559,3.261 7.983,2.922 2.861,12.678 -5.113,9.758 -8.943,6.852 -11.172,5.607 -5.28,-2.952 -6.003,-5.291 -3.146,-12.615 z"
         fill="#ffffff"
         stroke="#ffffff"
         stroke-width="0.864091"
         stroke-linecap="round"
         stroke-linejoin="round"
         id="path149" /><path
         d="m 680.85,372.689 c -2.074,0.765 -44.776,-1.141 -55.623,-2.451 -17.974,-2.164 -25.378,-2.775 -22.034,-16.238 2.1,-8.46 2.942,-18.563 24.524,-10.419 6.332,2.384 14.238,4.715 22.072,6.895 15.775,4.392 31.252,8.184 32.992,10.688 2.235,3.215 -0.913,11.153 -1.931,11.525 z"
         fill="#ffffff"
         stroke="#ffffff"
         stroke-width="0.864091"
         stroke-linecap="round"
         stroke-linejoin="round"
         id="path151" /><path
         d="m 701.156,378.13 c -7.846,-0.533 -9.684,-1.047 -8.835,-9.239 0.853,-8.188 0.403,-8.491 11.244,-6.52 10.84,1.964 9.211,6.487 8.69,8.986 -1.24,5.921 -3.256,7.311 -11.099,6.773 z"
         fill="#ffffff"
         stroke="#ffffff"
         stroke-width="0.864091"
         stroke-linecap="round"
         stroke-linejoin="round"
         id="path153" /><path
         d="m 613.491,637.887 c 0.215,1.337 -5.966,26.789 -8.034,33.157 -3.42,10.552 -4.661,14.932 -12.361,11.334 -4.84,-2.261 -10.815,-3.958 -3.373,-15.975 2.18,-3.526 4.514,-8.005 6.749,-12.459 4.501,-8.967 8.606,-17.826 10.316,-18.577 2.197,-0.965 6.599,1.864 6.703,2.52 z"
         fill="#ffffff"
         stroke="#ffffff"
         stroke-width="0.529473"
         stroke-linecap="round"
         stroke-linejoin="round"
         id="path155" /><path
         d="m 619.157,626.318 c -1.246,4.655 -1.772,5.7 -6.597,4.223 -4.823,-1.478 -5.058,-1.243 -2.594,-7.529 2.458,-6.287 4.986,-4.774 6.428,-4.166 3.413,1.444 4.011,2.82 2.763,7.472 z"
         fill="#ffffff"
         stroke="#ffffff"
         stroke-width="0.529473"
         stroke-linecap="round"
         stroke-linejoin="round"
         id="path157" /><path
         d="m 1011.93,456.018 c -1.21,-0.708 -17.381,-22.358 -21.086,-28.188 -6.143,-9.658 -8.81,-13.525 -0.886,-17.283 4.98,-2.362 10.262,-5.998 14.922,7.821 1.37,4.052 3.4,8.853 5.47,13.558 4.17,9.476 8.52,18.565 7.99,20.419 -0.68,2.381 -5.82,4.022 -6.41,3.673 z"
         fill="#ffffff"
         stroke="#ffffff"
         stroke-width="0.546329"
         stroke-linecap="round"
         stroke-linejoin="round"
         id="path159" /><path
         d="m 1017.4,468.13 c -2.88,-4.051 -3.36,-5.156 0.98,-8.023 4.35,-2.863 4.32,-3.205 7.7,2.888 3.38,6.089 0.51,7.104 -0.92,7.85 -3.39,1.766 -4.88,1.337 -7.76,-2.715 z"
         fill="#ffffff"
         stroke="#ffffff"
         stroke-width="0.546329"
         stroke-linecap="round"
         stroke-linejoin="round"
         id="path161" /><path
         d="m 349.194,59.1406 c 28.955,26.0289 44.921,100.8434 65.677,140.8874"
         stroke="#fffffb"
         stroke-width="33.811"
         stroke-linecap="round"
         stroke-linejoin="round"
         id="path163" /><path
         d="m 397.893,17.887 c -0.334,11.1253 6.161,28.9183 11.619,43.5997 19.028,51.0703 35.66,76.1483 62.837,119.8833"
         stroke="#fffffb"
         stroke-width="33.811"
         stroke-linecap="round"
         stroke-linejoin="round"
         id="path165" /><path
         d="m 452.112,58.4244 c -25.066,0 -78.692,68.9986 -112.29,68.9986"
         stroke="#fffffb"
         stroke-width="33.811"
         stroke-linecap="round"
         stroke-linejoin="round"
         id="path167" /><path
         d="m 475.93,88.6392 c 0,0 -28.807,20.0768 -35.956,25.0908 -29.116,20.423 -50.058,34.042 -70.32,66.628"
         stroke="#fffffb"
         stroke-width="33.811"
         stroke-linecap="round"
         stroke-linejoin="round"
         id="path169" /><path
         d="m 725.906,688.768 c -3.802,-17.388 10.237,-49.418 13.218,-69.82"
         stroke="#fffffb"
         stroke-width="15.4565"
         stroke-linecap="round"
         stroke-linejoin="round"
         id="path171" /><path
         d="m 696.821,691.085 c 3.093,-4.041 5.43,-12.378 7.322,-19.284 6.566,-24.033 7.084,-37.78 8.668,-61.266"
         stroke="#fffffb"
         stroke-width="15.4565"
         stroke-linecap="round"
         stroke-linejoin="round"
         id="path173" /><path
         d="m 687.514,661.57 c 9.304,6.689 47.621,-4.612 60.092,4.354"
         stroke="#fffffb"
         stroke-width="15.4565"
         stroke-linecap="round"
         stroke-linejoin="round"
         id="path175" /><path
         d="m 686.736,643.999 c 0,0 16.05,0.235 20.042,0.282 16.257,0.189 27.664,0.722 43.881,-5.966"
         stroke="#fffffb"
         stroke-width="15.4565"
         stroke-linecap="round"
         stroke-linejoin="round"
         id="path177" /><path
         d="m 1111.23,520.59 c -17.7,-1.8 -43.77,-25.111 -62.23,-34.295"
         stroke="#fffffb"
         stroke-width="15.4565"
         stroke-linecap="round"
         stroke-linejoin="round"
         id="path179" /><path
         d="m 1104.38,548.951 c -2.88,-4.196 -10.07,-9.013 -16.05,-12.961 -20.79,-13.72 -33.69,-18.492 -55.52,-27.308"
         stroke="#fffffb"
         stroke-width="15.4565"
         stroke-linecap="round"
         stroke-linejoin="round"
         id="path181" /><path
         d="m 1073.44,548.608 c 9.25,-6.759 10.44,-46.69 22.84,-55.75"
         stroke="#fffffb"
         stroke-width="15.4565"
         stroke-linecap="round"
         stroke-linejoin="round"
         id="path183" /><path
         d="m 1056.5,543.878 c 0,0 5.21,-15.179 6.5,-18.958 5.24,-15.39 9.3,-26.065 7.99,-43.558"
         stroke="#fffffb"
         stroke-width="15.4565"
         stroke-linecap="round"
         stroke-linejoin="round"
         id="path185" /><path
         d="m 210.361,470.286 c 22.377,-4.666 63.335,13.76 89.498,17.843"
         stroke="#fffffb"
         stroke-width="19.8502"
         stroke-linecap="round"
         stroke-linejoin="round"
         id="path187" /><path
         d="m 207.748,432.906 c 5.15,4.022 15.828,7.127 24.673,9.643 30.782,8.73 48.429,9.567 78.57,11.893"
         stroke="#fffffb"
         stroke-width="19.8502"
         stroke-linecap="round"
         stroke-linejoin="round"
         id="path189" /><path
         d="m 245.766,421.321 c -8.705,11.865 5.33,61.212 -6.339,77.116"
         stroke="#fffffb"
         stroke-width="19.8502"
         stroke-linecap="round"
         stroke-linejoin="round"
         id="path191" /><path
         d="m 268.341,420.541 c 0,0 -0.502,20.608 -0.612,25.734 -0.445,20.874 -1.272,35.517 7.115,56.426"
         stroke="#fffffb"
         stroke-width="19.8502"
         stroke-linecap="round"
         stroke-linejoin="round"
         id="path193" /><path
         d="m 831.016,381.262 c 9.117,-6.85 31.519,-7.211 44.2,-10.913"
         stroke="#fffffb"
         stroke-width="9.90262"
         stroke-linecap="round"
         stroke-linejoin="round"
         id="path195" /><path
         d="m 821.913,364.935 c 3.178,0.725 8.659,-0.136 13.186,-0.875 15.752,-2.582 23.899,-5.944 38.003,-11.283"
         stroke="#fffffb"
         stroke-width="9.90262"
         stroke-linecap="round"
         stroke-linejoin="round"
         id="path197" /><path
         d="m 836.627,351.645 c -1.417,7.203 15.381,26.513 13.483,36.169"
         stroke="#fffffb"
         stroke-width="9.90262"
         stroke-linecap="round"
         stroke-linejoin="round"
         id="path199" /><path
         d="m 846.656,346.508 c 0,0 4.141,9.413 5.178,11.751 4.224,9.521 6.954,16.309 15.174,23.973"
         stroke="#fffffb"
         stroke-width="9.90262"
         stroke-linecap="round"
         stroke-linejoin="round"
         id="path201" /><path
         d="m 1226.67,25.5084 c 16.59,13.1634 27.76,53.2483 40.37,74.2948"
         stroke="#fffffb"
         stroke-width="18.3917"
         stroke-linecap="round"
         stroke-linejoin="round"
         id="path203" /><path
         d="m 1251.73,1.48201 c 0.19,6.05135 4.31,15.49449 7.77,23.28289 12.03,27.0908 21.9,40.1501 38.12,62.9864"
         stroke="#fffffb"
         stroke-width="18.3917"
         stroke-linecap="round"
         stroke-linejoin="round"
         id="path205" /><path
         d="m 1282.52,21.6776 c -13.61,0.8383 -40.41,40.0931 -58.66,41.2168"
         stroke="#fffffb"
         stroke-width="18.3917"
         stroke-linecap="round"
         stroke-linejoin="round"
         id="path207" /><path
         d="m 1296.46,37.2853 c 0,0 -14.96,11.864 -18.68,14.8248 -15.12,12.062 -26.04,20.1569 -35.95,38.5261"
         stroke="#fffffb"
         stroke-width="18.3917"
         stroke-linecap="round"
         stroke-linejoin="round"
         id="path209" /><path
         d="m 1127.82,328.282 40.58,24.689 c 2.73,1.675 3.61,5.248 1.94,7.987 l -61.05,72.579 c -1.66,2.738 -5.24,3.611 -7.98,1.936 l -20.62,-11.709 c -2.75,-1.664 -3.62,-5.237 -1.95,-7.976 l 41.09,-85.56 c 1.67,-2.738 5.24,-3.611 7.99,-1.946 z"
         fill="#ffffff"
         stroke="#ffffff"
         stroke-width="20.7553"
         stroke-linejoin="round"
         id="path211" /><path
         d="m 1196.3,375.546 35.31,31.773 c 2.38,2.153 2.58,5.821 0.43,8.212 l -73.42,60.018 c -2.15,2.391 -5.82,2.582 -8.2,0.429 l -18.11,-15.317 c -2.38,-2.153 -2.58,-5.821 -0.43,-8.212 l 56.22,-76.474 c 2.14,-2.379 5.82,-2.581 8.2,-0.429 z"
         fill="#ffffff"
         stroke="#ffffff"
         stroke-width="20.7553"
         stroke-linejoin="round"
         id="path213" /><path
         d="m 454.661,745.161 -4.956,-24.67 c -0.331,-1.668 0.748,-3.291 2.413,-3.625 l 50.19,-2.29 c 1.665,-0.334 3.289,0.745 3.62,2.412 l 2.847,12.238 c 0.337,1.667 -0.741,3.289 -2.406,3.624 l -48.081,14.723 c -1.664,0.334 -3.289,-0.746 -3.627,-2.412 z"
         fill="#ffffff"
         stroke="#ffffff"
         stroke-width="10.9955"
         stroke-linejoin="round"
         id="path215" /><path
         d="m 448.475,701.514 -0.306,-25.161 c -0.017,-1.701 1.341,-3.095 3.044,-3.116 l 49.741,7.039 c 1.704,-0.021 3.097,1.34 3.114,3.041 l 0.537,12.553 c 0.017,1.7 -1.341,3.095 -3.044,3.116 l -49.973,5.57 c -1.696,0.02 -3.096,-1.341 -3.113,-3.042 z"
         fill="#ffffff"
         stroke="#ffffff"
         stroke-width="10.9955"
         stroke-linejoin="round"
         id="path217" /><path
         d="m 868.038,249.971 5.231,18.135 c 0.35,1.226 -0.356,2.506 -1.58,2.859 l -37.377,4.813 c -1.224,0.353 -2.505,-0.353 -2.855,-1.579 l -2.885,-8.972 c -0.355,-1.225 0.351,-2.505 1.575,-2.858 l 35.031,-13.977 c 1.224,-0.353 2.505,0.354 2.86,1.579 z"
         fill="#ffffff"
         stroke="#ffffff"
         stroke-width="8.24748"
         stroke-linejoin="round"
         id="path219" /><path
         d="m 875.361,282.215 1.783,18.79 c 0.118,1.271 -0.81,2.397 -2.083,2.518 l -37.617,-2.188 c -1.272,0.121 -2.398,-0.81 -2.516,-2.081 l -1.177,-9.35 c -0.118,-1.27 0.811,-2.397 2.083,-2.518 l 37.012,-7.252 c 1.266,-0.12 2.397,0.811 2.515,2.081 z"
         fill="#ffffff"
         stroke="#ffffff"
         stroke-width="8.24748"
         stroke-linejoin="round"
         id="path221" /><path
         d="m 88.5131,130.455 -10.6632,6.689 c -0.7217,0.45 -1.6719,0.233 -2.1233,-0.487 L 65.765,113.583 c -0.4513,-0.72 -0.234,-1.671 0.4874,-2.121 l 5.221,-3.5 c 0.7199,-0.453 1.6698,-0.236 2.1215,0.484 l 15.4041,19.885 c 0.4514,0.72 0.234,1.671 -0.4859,2.124 z"
         fill="#ffffff"
         stroke="#ffffff"
         stroke-width="5.50035"
         stroke-linejoin="round"
         id="path223" /><path
         d="m 69.1901,141.081 -11.7171,4.6 c -0.7927,0.309 -1.6854,-0.079 -1.9969,-0.872 l -5.5179,-24.517 c -0.3115,-0.793 0.0786,-1.686 0.8714,-1.996 l 5.7773,-2.474 c 0.7925,-0.309 1.6855,0.079 1.997,0.872 l 11.4576,22.392 c 0.3098,0.79 -0.079,1.686 -0.8714,1.995 z"
         fill="#ffffff"
         stroke="#ffffff"
         stroke-width="5.50035"
         stroke-linejoin="round"
         id="path225" /><path
         d="m 327.672,409.767 10.226,-24.003 c 0.695,-1.62 2.568,-2.375 4.188,-1.685 l 44.265,27.469 c 1.62,0.69 2.376,2.565 1.681,4.185 l -4.741,12.135 c -0.688,1.623 -2.562,2.378 -4.182,1.688 L 329.36,413.957 c -1.62,-0.691 -2.376,-2.566 -1.688,-4.19 z"
         fill="#ffffff"
         stroke="#ffffff"
         stroke-width="11.4008"
         stroke-linejoin="round"
         id="path227" /><path
         d="m 347.972,368.815 14.491,-21.697 c 0.983,-1.465 2.961,-1.861 4.43,-0.88 l 38.41,35.183 c 1.469,0.981 1.863,2.962 0.88,4.426 l -6.901,11.05 c -0.982,1.464 -2.961,1.861 -4.43,0.88 l -46.001,-24.536 c -1.462,-0.977 -1.862,-2.963 -0.879,-4.426 z"
         fill="#ffffff"
         stroke="#ffffff"
         stroke-width="11.4008"
         stroke-linejoin="round"
         id="path229" /><path
         d="m 521.049,158.649 18.441,-3.739 c 1.247,-0.249 2.462,0.555 2.714,1.8 l 1.777,37.528 c 0.252,1.245 -0.553,2.461 -1.799,2.71 l -9.148,2.145 c -1.245,0.254 -2.46,-0.55 -2.713,-1.795 L 519.25,161.364 c -0.252,-1.244 0.553,-2.46 1.799,-2.715 z"
         fill="#ffffff"
         stroke="#ffffff"
         stroke-width="8.22216"
         stroke-linejoin="round"
         id="path231" /><path
         d="m 553.679,153.966 18.814,-0.261 c 1.272,-0.015 2.317,0.999 2.334,2.272 l -5.198,37.204 c 0.017,1.274 -0.999,2.318 -2.271,2.332 l -9.386,0.418 c -1.271,0.015 -2.316,-0.998 -2.334,-2.272 l -4.23,-37.361 c -0.017,-1.268 0.999,-2.317 2.271,-2.332 z"
         fill="#ffffff"
         stroke="#ffffff"
         stroke-width="8.22216"
         stroke-linejoin="round"
         id="path233" /><path
         d="m 209.466,86.1368 9.782,-1.3186 9.42,20.7128 19.542,-5.549 3.346,10.015 -16.31,10.127 13.736,16.708 -9.732,9.041 -15.453,-9.617 -7.336,17.11 -14.297,-6.98 6.699,-18.596 -21.148,-6.471 2.007,-11.152 19.617,1.316 z"
         fill="#ffffff"
         stroke="#ffffff"
         stroke-width="8.64091"
         stroke-linejoin="round"
         id="path235" /><path
         d="m 783.697,288.454 6.609,8.239 -13.789,20.069 15.874,14.852 -7.334,8.595 -18.286,-9.362 -7.736,21.815 -13.66,-3.93 0.287,-19.476 -19.735,2.72 -1.493,-16.959 20.745,-4.125 -5.741,-22.958 11.332,-4.316 9.621,18.709 z"
         fill="#ffffff"
         stroke="#ffffff"
         stroke-width="9.24656"
         stroke-linejoin="round"
         id="path237" /><path
         d="m 1164.47,68.0406 -4.66,4.6105 -13.27,-7.2144 -8.15,10.7563 -5.77,-3.972 4.59,-11.8904 -13.96,-3.3657 1.54,-8.6845 12.04,-1.0805 -2.95,-12.0046 10.37,-2.0163 3.88,12.5374 13.8,-5.0257 3.4,6.7152 -10.93,7.1463 z"
         fill="#ffffff"
         stroke="#ffffff"
         stroke-width="5.73801"
         stroke-linejoin="round"
         id="path239" /><path
         d="m 541.531,110.119 0.195,4.468 -9.731,3.404 1.704,9.045 -4.656,1.1 -3.902,-7.774 -8.101,5.515 -3.682,-4.761 4.972,-6.58 -7.421,-4.01 3.734,-6.166 8.117,3.783 3.785,-9.2776 4.951,1.3616 -1.396,8.798 z"
         fill="#ffffff"
         stroke="#ffffff"
         stroke-width="3.91511"
         stroke-linejoin="round"
         id="path241" /><path
         d="m 1059.28,24.3459 13.21,10.0146 -13.31,35.8202 29.84,16.5369 -7.88,15.8884 -31.41,-7.2578 -3.44,36.1628 -22.29,-0.759 -7.01,-29.754 -29.002,11.686 -8.757,-25.2432 29.999,-14.2104 -17.518,-32.7507 15.598,-10.9026 21.8,24.7985 z"
         fill="#ffffff"
         stroke="#ffffff"
         stroke-width="14.512"
         stroke-linejoin="round"
         id="path243" /><path
         d="m 845.949,608.204 9.16,-3.921 14.75,17.607 17.513,-10.67 5.957,8.841 -13.134,14.25 17.869,12.548 -7.028,11.42 -17.626,-5.187 -2.521,18.623 -15.79,-2.933 1.499,-19.896 -22.317,-0.59 -1.056,-11.39 19.437,-4.012 z"
         fill="#ffffff"
         stroke="#ffffff"
         stroke-width="8.72278"
         stroke-linejoin="round"
         id="path245" /><path
         d="m 936.701,420.956 5.055,2.669 -2.528,12.933 11.08,3.958 -1.792,5.847 -11.096,-0.713 0.855,12.498 -7.629,0.988 -4.05,-9.732 -9.214,5.598 -4.392,-8.1 9.414,-6.513 -7.792,-10.165 4.698,-4.582 8.804,7.219 z"
         fill="#ffffff"
         stroke="#ffffff"
         stroke-width="5.00426"
         stroke-linejoin="round"
         id="path247" /><path
         d="m 318.064,578.556 4.174,3.205 -4.297,11.347 9.442,5.309 -2.533,5.028 -9.959,-2.366 -1.161,11.475 -7.077,-0.285 -2.167,-9.46 -9.23,3.653 -2.731,-8.032 9.553,-4.453 -5.498,-10.432 4.974,-3.431 6.872,7.916 z"
         fill="#ffffff"
         stroke="#ffffff"
         stroke-width="4.60749"
         stroke-linejoin="round"
         id="path249" /><path
         d="m 109.27,450.719 23.304,2.565 9.846,53.142 48.227,-1.595 1.974,25.003 -43.398,13.998 22.089,46.384 -27.612,15.266 -30.111,-31.023 -26.7132,35.237 -28.9564,-24.28 26.0948,-39.028 -45.0399,-27.032 11.0166,-24.557 44.4632,14.271 z"
         fill="#ffffff"
         stroke="#ffffff"
         stroke-width="20.5242"
         stroke-linejoin="round"
         id="path251" /><path
         d="m 637.265,546.714 3.684,-4.426 12.219,5.186 6.21,-10.095 5.389,2.985 -3.015,10.786 12.495,1.763 -0.616,7.724 -10.435,1.963 3.597,10.248 -8.898,2.64 -4.457,-10.635 -11.642,5.562 -3.537,-5.585 8.95,-7.173 z"
         fill="#ffffff"
         stroke="#ffffff"
         stroke-width="5.04099"
         stroke-linejoin="round"
         id="path253" /><path
         d="m 775.166,210.822 0.527,-4.538 10.368,-1.855 -0.254,-9.4 4.875,-0.355 2.676,8.473 9.066,-4.249 2.942,5.399 -6.082,5.831 6.835,5.248 -4.766,5.614 -7.574,-5.132 -5.322,8.745 -4.772,-2.176 2.834,-8.648 z"
         fill="#ffffff"
         stroke="#ffffff"
         stroke-width="3.99971"
         stroke-linejoin="round"
         id="path255" /><path
         d="m 1135.05,539.225 -0.13,-4.165 9.1,-3.059 -1.48,-8.447 4.35,-0.971 3.55,7.288 7.61,-5.045 3.37,4.479 -4.7,6.073 6.86,3.822 -3.55,5.702 -7.52,-3.619 -3.63,8.601 -4.6,-1.326 1.41,-8.181 z"
         fill="#ffffff"
         stroke="#ffffff"
         stroke-width="3.64812"
         stroke-linejoin="round"
         id="path257" /></g></g><g
     id="g446"
     transform="matrix(0.85360933,0,0,0.85360933,15.284723,16.000176)"><path
       id="path856"
       style="fill:#ffffff;fill-opacity:1;stroke:none;stroke-width:0.264583px;stroke-linecap:butt;stroke-linejoin:miter;stroke-opacity:1"
       d="M 23.742737,1.5353068 C 17.193021,4.6054857 15.45324,40.423906 15.862598,42.982389 14.020489,43.289406 8.3917358,60.380292 8.3917358,63.041113 c 0,1.794689 1.4715214,23.436131 2.6613362,40.049757 15.012363,-1.61348 30.845584,-1.34072 31.866413,-3.42889 1.213715,-2.482735 2.598842,-15.86464 6.211422,-17.837608 3.313367,-1.809557 7.627903,-1.690832 10.430737,0.0391 3.566389,2.201205 4.844973,15.995518 6.625449,17.904562 1.249514,1.339746 24.469681,3.011596 35.517747,4.328436 0.97372,-12.702039 2.29731,-26.773562 2.57917,-30.719578 0.5117,-7.163751 -1.33046,-21.900717 -2.35386,-25.943119 0.38632,-1.474589 2.14913,-9.82468 2.60966,-12.690182 0.46056,-2.86534 -0.51203,-25.6357117 -0.97255,-27.9383459 -0.46053,-2.3026342 -1.84175,-3.3264119 -1.84175,-3.3264119 -0.40935,1.0233931 -8.801126,11.9738848 -10.847912,14.9417238 -2.046786,2.96784 -9.824782,8.90331 -12.000301,10.40815 C 72.812944,24.910109 44.313078,27.12013 41.549919,28.041182 40.117168,26.608433 38.274928,22.719167 36.944515,22.002791 35.614105,21.286416 25.380165,7.0616289 23.742737,1.5353068 Z"
       sodipodi:nodetypes="ccscsssscsccscsccsc" /><g
       id="layer1"><path
         id="path836"
         style="fill:#000000;stroke-width:0.264583"
         d="M 23.871411,0.00671794 C 23.47239,0.05353359 23.048204,0.33749857 22.668901,0.84956055 21.101753,2.9652463 18.576134,10.610596 17.019116,17.951359 c -0.701678,3.30813 -0.798084,3.558636 -1.457792,3.788916 -0.883908,0.308544 -0.975681,0.547582 -1.426269,3.711918 -0.3967,2.785954 -0.336536,3.271527 0.437182,3.517098 0.764188,0.242543 0.602236,0.992987 -0.328662,1.522905 l -0.829923,0.472322 0.170015,2.014864 c 0.09372,1.108126 0.170532,2.354216 0.170532,2.768824 0,0.414602 0.250229,1.004181 0.556039,1.309997 0.438678,0.438682 0.586209,0.998785 0.699699,2.654618 0.138188,2.016161 0.112866,2.142654 -0.651124,3.214275 -5.8791976,8.246489 -7.4828462,22.287801 -5.3500606,46.848303 0.3013694,3.4705 0.5012172,6.356762 0.4444174,6.413562 C 9.28478,96.357351 7.9814495,91.86546 7.4119507,89.154248 6.7040921,85.784324 6.255708,81.157063 6.4605876,79.340377 L 6.6269857,77.860881 3.9367106,77.413879 c -1.479677,-0.245758 -2.7632391,-0.374152 -2.8525391,-0.285254 -0.3626792,0.36114 -0.31440138,5.993358 0.076998,8.984982 0.8049284,6.152336 3.3190626,14.533883 4.6555298,15.520503 0.3638094,0.26857 1.435372,0.62039 2.38125,0.78186 2.6974507,0.88596 5.0989137,0.81978 7.5855957,0.9938 2.157996,0.15297 6.840829,0.34473 10.406083,0.42633 3.565252,0.0816 8.179688,0.26338 10.254154,0.40359 4.211572,0.28464 6.023157,0.0573 7.080705,-0.88832 0.740298,-0.66197 2.091047,-4.48488 4.910811,-13.899922 1.029438,-3.437214 1.971886,-6.353308 2.094446,-6.479708 0.12609,-0.13003 1.863422,-0.13003 4.001306,0 l 3.778581,0.22996 0.494544,1.719791 c 1.712526,5.957949 4.82852,15.859389 5.18728,16.482199 0.866218,1.50371 3.844215,2.39711 10.484631,3.14554 3.992402,0.44972 19.508141,0.45158 23.246643,0.003 2.546461,-0.17143 4.590861,-0.6619 6.820201,-1.10503 0.82047,-0.16248 1.68691,-0.51103 1.92547,-0.77463 0.56263,-0.62171 2.22809,-4.709738 3.41271,-8.37727 1.77553,-5.496982 2.79264,-10.296456 3.23649,-15.270386 l 0.18397,-2.059823 -2.87631,0.07545 -2.87631,0.07545 -0.0646,1.190625 c -0.20245,3.720234 -1.84399,11.288561 -3.38636,15.614551 -0.77377,2.1702 -1.26883,2.970117 -1.0573,1.707389 0.0724,-0.432008 0.25407,-2.03564 0.40411,-3.563606 0.15004,-1.527966 0.44727,-4.445006 0.66042,-6.482292 1.78228,-17.035006 1.5066,-28.982777 -0.82114,-35.586458 -0.86546,-2.454871 -0.86598,-3.075088 -0.003,-5.510775 1.56343,-4.413583 2.15217,-10.783956 1.93477,-20.937223 -0.23956,-11.188356 -1.23076,-18.6396707 -2.70423,-20.3320926 -0.58861,-0.6760676 -0.6575,-0.6922462 -1.341,-0.315743 -0.40407,0.2225756 -2.05016,2.3141668 -3.748608,4.7625 C 91.829228,15.724705 89.219895,18.747787 82.659037,24.769031 l -2.927986,2.687174 -1.984892,-0.472839 c -5.23236,-1.246601 -7.837578,-1.458534 -17.822168,-1.447974 -9.613729,0.01016 -11.221835,0.131421 -17.751371,1.334286 -0.78884,0.14532 -0.880425,0.05691 -2.551783,-2.451013 C 38.667359,22.987943 37.186894,21.043882 36.331116,20.097998 31.599235,14.867839 29.314047,11.178495 26.579773,4.3552897 25.879995,2.609043 25.13473,0.91239857 24.92406,0.58497721 24.644335,0.15023609 24.270433,-0.04009773 23.871411,0.00671794 Z M 23.755656,1.841748 c 0.13483,0 0.814237,1.3989893 1.509985,3.1088542 2.790844,6.8587258 4.972051,10.3941358 9.75186,15.8088538 5.869678,6.649348 8.961021,14.471547 8.104931,20.507793 -0.280788,1.979825 -0.75892,3.174553 -1.669148,4.169771 -0.51367,0.561632 -0.520799,0.629515 -0.106971,1.043347 0.41383,0.413829 0.487792,0.400834 1.135332,-0.203605 2.816504,-2.629034 2.930504,-9.577392 0.2651,-16.176274 -0.36498,-0.90359 -0.617606,-1.688703 -0.561206,-1.745113 0.05641,-0.05641 1.570239,-0.328182 3.364135,-0.603581 6.496548,-0.997343 14.308936,-1.274772 21.914942,-0.778247 3.852922,0.251524 9.314827,1.058461 10.680485,1.577682 l 0.732255,0.278019 -0.513664,0.727604 c -0.917748,1.29997 -2.090164,3.853386 -2.824634,6.151563 -1.325176,4.146566 -0.989319,8.794877 0.792717,10.976591 0.615378,0.753393 0.667253,0.768828 1.109493,0.326595 0.409398,-0.40944 0.420164,-0.533662 0.08992,-1.055233 -1.104828,-1.744833 -1.203027,-2.170405 -1.203027,-5.22087 0,-2.635858 0.09784,-3.325735 0.731221,-5.159375 1.560018,-4.516227 3.683796,-7.479687 8.223788,-11.473718 4.64847,-4.089466 8.051895,-8.133618 13.451375,-15.9835207 1.478925,-2.1500898 2.770915,-3.8169685 2.871135,-3.7041667 1.29205,1.4542942 2.62583,16.6231914 2.28617,26.0020304 -0.37929,10.473017 -2.02412,16.535365 -5.280812,19.463412 -0.718208,0.645735 -1.404145,1.174088 -1.524455,1.174088 -0.120298,0 -0.514692,0.112064 -0.876432,0.249597 -0.490628,0.186523 -0.621781,0.388212 -0.515731,0.79375 0.30085,1.150449 2.583882,0.217502 4.59197,-1.876888 l 1.25728,-1.311548 0.41651,1.270724 c 1.89547,5.782798 2.40731,13.895885 1.60766,25.495601 -0.44018,6.385278 -2.09388,22.419778 -2.33733,22.663216 -0.0813,0.08135 -1.491131,0.314765 -3.132619,0.518315 -3.682142,0.45659 -16.19653,0.663345 -20.314522,0.335897 -3.321914,-0.26414 -8.354141,-0.942201 -8.734351,-1.177189 -0.282938,-0.17486 -2.14908,-6.05757 -4.908744,-15.476058 -1.168078,-3.986522 -1.444278,-4.559737 -2.410706,-5.001245 -1.132486,-0.51737 -13.432141,-0.864638 -14.551049,-0.410828 -1.171038,0.474968 -1.504694,1.109984 -2.566252,4.882906 -0.944738,3.357714 -2.579176,8.722331 -4.191992,13.758333 l -0.889868,2.778125 -2.238623,-0.01654 C 27.5507,98.45881 11.604964,97.652952 11.141956,97.209054 c -0.05431,-0.05207 -0.255155,-1.79627 -0.446485,-3.87625 -0.19133,-2.079994 -0.483909,-5.210435 -0.650089,-6.956681 -0.1661838,-1.746242 -0.3682518,-7.16872 -0.4485518,-12.04991 -0.1205096,-7.321196 -0.067012,-9.59087 0.3054078,-12.964584 0.536179,-4.8573 1.405473,-8.943192 2.510441,-11.79928 0.851128,-2.19996 2.642213,-5.455798 3.023071,-5.495788 0.12446,-0.01307 0.52498,0.721995 0.889868,1.634009 1.062748,2.656239 4.289523,5.721536 5.524211,5.247741 0.771158,-0.295921 0.380451,-1.106942 -0.811837,-1.686202 -1.569256,-0.762403 -2.853346,-2.570176 -3.707784,-5.219319 -0.667758,-2.070347 -1.284821,-6.434036 -0.961181,-6.798552 0.0897,-0.101036 2.237394,-0.591598 4.772318,-1.090372 5.34797,-1.052275 5.429962,-1.105701 5.159892,-3.355351 -0.25204,-2.09957 -0.594917,-2.381767 -2.890263,-2.381767 -1.046498,0 -2.992246,-0.07753 -4.324284,-0.172082 -2.118226,-0.150357 -2.422074,-0.233295 -2.422074,-0.661459 0,-0.441581 0.252773,-0.491506 2.579687,-0.508496 3.477034,-0.02537 6.605001,-0.328899 6.950481,-0.674377 0.155798,-0.155797 0.353134,-1.118286 0.438732,-2.138888 0.11929,-1.422883 0.0703,-1.909118 -0.210323,-2.085661 -0.432798,-0.272278 -2.922418,-0.918409 -6.05441,-1.570963 -1.236928,-0.257714 -2.35538,-0.562969 -2.48512,-0.678512 -0.27897,-0.248431 0.05653,-2.119459 1.299662,-7.25227 1.469998,-6.0695277 3.879633,-12.832292 4.572331,-12.832292 z m 68.461971,73.43066 c -0.598168,-0.01607 -1.424114,0.03197 -2.696993,0.138493 -4.476702,0.37465 -11.003041,1.25401 -12.174967,1.64021 -1.857798,0.612218 -2.226228,2.741255 -0.6165,3.564123 0.361388,0.18472 0.954984,0.281591 1.318782,0.215491 0.36381,-0.06614 3.757093,-0.43491 7.540625,-0.819588 7.310369,-0.743248 8.76494,-1.088754 9.02994,-2.144572 0.27304,-1.087888 -0.120695,-1.949334 -1.072803,-2.347144 -0.359923,-0.150388 -0.729917,-0.230944 -1.328084,-0.247013 z m -71.085584,1.212329 c -0.725075,-0.01453 -1.382413,-0.0091 -1.94045,0.02015 -1.913756,0.10045 -2.360852,0.214097 -2.922302,0.741557 -0.863818,0.811518 -0.871988,1.91502 -0.01912,2.585888 0.678338,0.53358 2.3087,0.714387 12.71757,1.409217 2.473844,0.16513 4.547387,0.345942 4.607987,0.402042 0.28052,0.25946 1.072308,0.05227 1.706356,-0.446484 0.868768,-0.683368 0.953487,-2.047806 0.171049,-2.755904 -0.852659,-0.771643 -9.245558,-1.854742 -14.32109,-1.95647 z m 64.845655,4.795056 c -2.692727,0.0184 -5.730378,0.195527 -6.642489,0.459921 -1.505456,0.436388 -2.346459,1.229325 -2.341459,2.208133 0.0048,0.993728 0.187332,1.314897 0.98857,1.736845 l 0.596346,0.313676 -0.575159,0.778247 c -0.487548,0.65944 -0.528562,0.879828 -0.269234,1.449008 0.16827,0.369298 0.575285,0.79135 0.904855,0.93741 0.329558,0.14606 3.576016,0.606682 7.21403,1.02371 8.436035,0.967048 8.21491,0.962834 9.007718,0.170016 0.35719,-0.35719 0.649573,-0.806903 0.649573,-0.999423 0,-0.646478 -0.788451,-1.483282 -1.654679,-1.756482 -0.946868,-0.298638 -5.231101,-0.922651 -9.310543,-1.355989 -1.446838,-0.1537 -2.668046,-0.317285 -2.714046,-0.363285 -0.04597,-0.04597 2.203032,-0.162733 4.997628,-0.259933 4.715193,-0.16397 5.12484,-0.218315 5.690608,-0.749825 0.79016,-0.742348 0.781394,-1.814329 -0.02119,-2.568319 -0.44949,-0.422278 -1.191377,-0.672561 -2.579688,-0.870231 -0.833563,-0.118687 -2.325209,-0.164521 -3.940844,-0.153479 z m -54.52122,0.517798 c -0.570125,-0.01927 -1.282448,0.0049 -2.168343,0.06046 -4.154642,0.260718 -9.450229,0.893885 -10.274309,1.228865 -0.612788,0.24909 -1.290877,1.200614 -1.290877,1.810742 0,0.11905 0.246677,0.53021 0.548287,0.91364 0.66124,0.840628 0.451088,0.835723 7.348906,0.168465 7.956363,-0.769648 7.977807,-0.77655 7.977807,-2.526978 0,-1.150325 -0.4311,-1.597388 -2.141471,-1.655196 z m 2.770373,3.915007 c -0.668748,0.01586 -1.397767,0.102407 -2.084627,0.264583 -0.582077,0.13744 -3.201459,0.555719 -5.820833,0.929659 -5.725878,0.817428 -8.526885,1.383675 -9.326563,1.885673 -0.821434,0.515824 -0.825716,2.022066 -0.0072,2.595707 h 5.16e-4 c 0.323391,0.226415 0.769474,0.411395 0.991671,0.411345 0.45465,-9e-5 16.752926,-2.562098 17.650086,-2.774508 1.332776,-0.31555 1.857429,-1.845503 0.969449,-2.826701 -0.309992,-0.342543 -1.257883,-0.512193 -2.372465,-0.485758 z"
         sodipodi:nodetypes="scsscscccssscsssccccssccssssscccccccsscccccscssccssscsccssscsssscsssssssssccsssccsssscsssssccsscssssssscccssscssscssssscssscscsscsssssscssssscssscssssssccccsssssssscsssssscsssssssssscccsssss" /></g></g></svg>
