<?xml version="1.0" encoding="UTF-8" standalone="no"?>
<!-- Created with Vectornator for iOS (http://vectornator.io/) -->

<svg
   height="100%"
   style="fill-rule:nonzero;clip-rule:evenodd;stroke-linecap:round;stroke-linejoin:round;"
   xml:space="preserve"
   width="100%"
   version="1.1"
   viewBox="0 0 2642.98 3608.14"
   id="svg239"
   sodipodi:docname="デフォルメダーラヘスト.svg"
   inkscape:version="1.1 (c68e22c387, 2021-05-23)"
   inkscape:export-filename="C:\Users\kimiaki\Documents\デフォルメダーラヘスト\右めもと.png"
   inkscape:export-xdpi="96"
   inkscape:export-ydpi="96"
   xmlns:inkscape="http://www.inkscape.org/namespaces/inkscape"
   xmlns:sodipodi="http://sodipodi.sourceforge.net/DTD/sodipodi-0.dtd"
   xmlns="http://www.w3.org/2000/svg"
   xmlns:svg="http://www.w3.org/2000/svg"
   xmlns:vectornator="http://vectornator.io"><sodipodi:namedview
   id="namedview241"
   pagecolor="#ffffff"
   bordercolor="#666666"
   borderopacity="1.0"
   inkscape:pageshadow="2"
   inkscape:pageopacity="0.0"
   inkscape:pagecheckerboard="0"
   showgrid="false"
   inkscape:zoom="0.22752747"
   inkscape:cx="1362.4728"
   inkscape:cy="1777.8073"
   inkscape:window-width="1450"
   inkscape:window-height="1081"
   inkscape:window-x="713"
   inkscape:window-y="108"
   inkscape:window-maximized="0"
   inkscape:current-layer="svg239" />
<metadata
   id="metadata126">
<vectornator:setting
   key="DimensionsVisible"
   value="1" />
<vectornator:setting
   key="PencilOnly"
   value="0" />
<vectornator:setting
   key="SnapToPoints"
   value="0" />
<vectornator:setting
   key="GuidesVisible"
   value="1" />
<vectornator:setting
   key="CMYKEnabledKey"
   value="0" />
<vectornator:setting
   key="RulersVisible"
   value="1" />
<vectornator:setting
   key="SnapToEdges"
   value="0" />
<vectornator:setting
   key="OutlineMode"
   value="0" />
<vectornator:setting
   key="DisplayWhiteBackground"
   value="0" />
<vectornator:setting
   key="doHistoryDisabled"
   value="0" />
<vectornator:setting
   key="SnapToGuides"
   value="1" />
<vectornator:setting
   key="TimeLapseWatermarkDisabled"
   value="0" />
<vectornator:setting
   key="DynamicGuides"
   value="0" />
<vectornator:setting
   key="IsolateActiveLayer"
   value="0" />
<vectornator:setting
   key="SnapToGrid"
   value="0" />
<vectornator:setting
   key="Units"
   value="Pixels" />
</metadata>
<defs
   id="defs128" />
<g
   id="尻尾"
   vectornator:layerName="尻尾"
   transform="translate(0.11381646)">
<path
   stroke="#000000"
   stroke-width="10"
   d="m 1665.99,2936.21 c 66.27,86.4 321.77,232.92 321.77,232.92 0,0 -21.38,-140.29 -168.91,-321.99 -147.52,-181.7 -223.42,-214.21 -223.42,-214.21 0,0 4.28,216.88 70.56,303.28 z"
   fill="#ffffff"
   stroke-linecap="butt"
   opacity="1"
   stroke-linejoin="round"
   id="path130" />
</g>
<g
   id="胴体"
   vectornator:layerName="胴体"
   transform="translate(0.11381646)">
<path
   stroke="#000000"
   stroke-width="10"
   d="m 1266.49,2848.63 c 0,0 16.7,-40.83 80.09,-40.83 67.37,0 77.76,39.85 77.76,39.85 l 10.37,451.41 c 0,0 2.81,34.37 76.96,34.37 58.11,0 67.08,-33.39 67.08,-33.39 0,0 158.51,-1192.47 146.51,-1505.47 -6.39,-166.57 -84,-363 -172,-404 -89.53,-41.71 -301.81,-35.29 -375,-3 -68,30 -163.28,118.62 -188.004,403 -29.792,342.61 104.544,1491.88 104.544,1491.88 0,0 3.49,43.06 85.37,44.38 76.7,1.24 71.34,-40.47 71.34,-40.47 z"
   fill="#ffffff"
   stroke-linecap="butt"
   opacity="1"
   stroke-linejoin="round"
   id="path133"
   sodipodi:nodetypes="csccscccsccccc" />
<path
   stroke="#000000"
   stroke-width="18.255"
   d="m 1166.22,1678.72 c -45.98,-14.3 -73.03,43.17 -27.42,57.36 24.58,7.65 50.27,-56.43 47.28,-57.36 -4.01,-1.25 -25.58,83.47 16.07,72.36 59.72,-15.92 36.82,-129.32 -41.6,-126.19 -66.2,2.65 -105.26,78.58 -76.6,127.95 24.59,42.36 117.69,57.43 139.95,15.89"
   fill="none"
   stroke-linecap="butt"
   opacity="1"
   stroke-linejoin="round"
   id="path135" />
<g
   opacity="1"
   id="g143">
<path
   stroke="#000000"
   stroke-width="18.255"
   d="m 1598.59,1483.02 c -92.34,-20.8 -133.37,154.64 -13.62,154.64"
   fill="none"
   stroke-linecap="butt"
   opacity="1"
   stroke-linejoin="round"
   id="path137" />
<path
   stroke="#000000"
   stroke-width="18.255"
   d="m 1486,1530.48 c 18.13,5.45 59.29,9 78.99,9"
   fill="none"
   stroke-linecap="butt"
   opacity="1"
   stroke-linejoin="round"
   id="path139" />
<path
   stroke="#000000"
   stroke-width="18.255"
   d="m 1476.01,1563.21 c 29.96,10.63 64.57,7.36 88.07,7.36"
   fill="none"
   stroke-linecap="butt"
   opacity="1"
   stroke-linejoin="round"
   id="path141" />
</g>
<g
   opacity="1"
   id="g151">
<path
   stroke="#000000"
   stroke-width="18.255"
   d="m 1113.56,2686.87 c -50.44,0 -31.12,-83.31 14.91,-80.32 41.68,2.71 39,89.17 -4.54,89.17"
   fill="none"
   stroke-linecap="butt"
   opacity="1"
   stroke-linejoin="round"
   id="path145" />
<path
   stroke="#000000"
   stroke-width="18.255"
   d="m 1205.6,2595.17 c 0,29.26 -12.26,72.34 -39.13,109.83 -22.69,31.66 -58.41,59.5 -79.48,69.78"
   fill="none"
   stroke-linecap="butt"
   opacity="1"
   stroke-linejoin="round"
   id="path147" />
<path
   stroke="#000000"
   stroke-width="18.255"
   d="m 1219.28,2750.62 c -26.66,13.52 -39.58,-37.02 -11.77,-49.84 50,-23.03 73.91,46.39 22.16,63.88"
   fill="none"
   stroke-linecap="butt"
   opacity="1"
   stroke-linejoin="round"
   id="path149" />
</g>
<path
   stroke="#000000"
   stroke-width="18.255"
   d="m 1392.83,2098.45 c -20.91,2.01 -28.75,57.6 -86.71,35.87 -57.95,-21.72 29.42,-92.79 73.21,-103.89 43.79,-11.09 55.21,-60.48 5.37,-50.36 -96.25,19.54 -13.42,169.14 41.31,195.19"
   fill="none"
   stroke-linecap="round"
   opacity="1"
   stroke-linejoin="round"
   id="path153" />
<g
   opacity="1"
   id="g159">
<path
   stroke="#000000"
   stroke-width="18.255"
   d="m 1640.48,2478.62 c -3.49,-11.98 -37.93,-0.3 -44.62,3.7 -29.45,17.63 32.18,91.07 32.49,123.61 0.3,32.45 -41.78,44.33 -62.69,13"
   fill="none"
   stroke-linecap="round"
   opacity="1"
   stroke-linejoin="round"
   id="path155" />
<path
   stroke="#000000"
   stroke-width="18.255"
   d="m 1591.58,2549.45 c -2.05,-22.49 -42.27,-9.64 -42.21,7.74 0.08,25.41 79.57,217.76 -20.76,138.25 0,0 -16.39,-22.81 -7.96,-49.14"
   fill="none"
   stroke-linecap="round"
   opacity="1"
   stroke-linejoin="round"
   id="path157" />
</g>
<g
   opacity="1"
   id="g165">
<path
   stroke="#000000"
   stroke-width="21.4171"
   d="m 1152.2,2951.81 c 42.4,-22.9 99.77,5.11 86.43,61.3 -10.46,44.09 -24.31,37.76 -55.63,34.06 -31.32,-3.71 -26.55,-10.7 -53.92,21.09"
   fill="none"
   stroke-linecap="butt"
   opacity="1"
   stroke-linejoin="round"
   id="path161" />
<path
   d="m 1093.43,3082.73 c 8.63,-12.4 11.4,-14.76 26.2,-1.93 14.8,12.84 13.99,16.25 -0.28,31.67 -14.28,15.42 -19.51,2.64 -23.76,-1.71 -10.1,-10.32 -10.79,-15.63 -2.16,-28.03 z"
   opacity="1"
   fill="#000000"
   id="path163" />
</g>
<g
   opacity="1"
   id="g171">
<path
   d="m 1547.31,3011.37 c -3.27,-2.01 -46.48,-62.33 -56.33,-78.54 -16.33,-26.85 -23.44,-37.61 -1.48,-47.49 13.8,-6.21 28.49,-15.9 40.53,22.29 3.54,11.2 8.84,24.49 14.27,37.52 10.93,26.24 22.36,51.43 20.81,56.49 -1.99,6.5 -16.2,10.72 -17.8,9.73 z"
   opacity="1"
   fill="#000000"
   id="path167" />
<path
   d="m 1561.67,3044.92 c -7.69,-11.28 -8.96,-14.34 3.13,-21.97 12.09,-7.62 12.02,-8.56 20.96,8.35 8.95,16.9 1.03,19.53 -2.94,21.5 -9.41,4.66 -13.47,3.4 -21.15,-7.88 z"
   opacity="1"
   fill="#000000"
   id="path169" />
</g>
</g>
<g
   id="右うで"
   vectornator:layerName="右うで"
   transform="translate(0.11381646)">
<path
   stroke="#000000"
   stroke-width="10"
   d="m 1032.26,1804.07 96,647.86 c 0,0 7.35,44.04 63.8,42.86 63.39,-1.32 55.2,-51.86 55.2,-51.86 l -6.33,-591.32"
   fill="#ffffff"
   stroke-linecap="butt"
   opacity="1"
   stroke-linejoin="round"
   id="path174" />
</g>
<g
   id="左うで"
   vectornator:layerName="左うで"
   transform="translate(0.11381646)">
<path
   stroke="#000000"
   stroke-width="10"
   d="m 1460.16,1860.86 -21.51,590.4 c 0,0 -4.84,51.01 58.49,54.1 54.15,2.64 68.51,-45.1 68.51,-45.1 l 104.5,-635.06"
   fill="#ffffff"
   stroke-linecap="butt"
   opacity="1"
   stroke-linejoin="round"
   id="path177" />
<g
   opacity="1"
   id="g187">
<path
   stroke="#000000"
   stroke-width="18.255"
   d="m 1508.69,1877.51 c 23.45,21.08 36.38,81.67 53.19,114.1"
   fill="none"
   stroke-linecap="round"
   opacity="1"
   stroke-linejoin="round"
   id="path179" />
<path
   stroke="#000000"
   stroke-width="18.255"
   d="m 1548.13,1844.1 c -0.27,9.01 4.99,23.42 9.41,35.31 15.41,41.36 28.88,61.67 50.89,97.09"
   fill="none"
   stroke-linecap="round"
   opacity="1"
   stroke-linejoin="round"
   id="path181" />
<path
   stroke="#000000"
   stroke-width="18.255"
   d="m 1592.04,1876.93 c -20.3,0 -63.73,55.88 -90.94,55.88"
   fill="none"
   stroke-linecap="round"
   opacity="1"
   stroke-linejoin="round"
   id="path183" />
<path
   stroke="#000000"
   stroke-width="18.255"
   d="m 1611.33,1901.4 c 0,0 -23.33,16.26 -29.12,20.32 -23.58,16.54 -40.54,27.57 -56.95,53.96"
   fill="none"
   stroke-linecap="round"
   opacity="1"
   stroke-linejoin="round"
   id="path185" />
</g>
</g>
<g
   id="頭-4"
   vectornator:layerName="頭"
   transform="matrix(-1,0,0,1,2973.7412,0)"
   inkscape:export-filename="C:\Users\kimiaki\Documents\デフォルメダーラヘスト\頭.png"
   inkscape:export-xdpi="96"
   inkscape:export-ydpi="96"
   style="clip-rule:evenodd;fill-rule:nonzero;stroke-linecap:round;stroke-linejoin:round"><path
     stroke="#000000"
     stroke-width="10"
     d="m 1566.8874,440.662 c -96,2 -219.2222,15.81478 -274.2099,151.20985 -43.8672,108.00931 9.4627,328.53882 11.2776,484.15035 0.6817,58.4411 -16.4599,111.6217 -36.1109,152.0206 -66.32,133.51 185.0432,224.6172 338.0432,224.6172 169.02,0 422.12,-100.3 342,-237.51 -21.132,-52.6446 -38.603,-65.7143 -40.63,-146.8431 -2.5431,-101.78084 55.137,-369.45067 -4.3577,-487.01534 C 1837.9446,452.94732 1662.8874,438.662 1566.8874,440.662 Z"
     fill="#ffffff"
     stroke-linecap="butt"
     opacity="1"
     stroke-linejoin="round"
     id="path190-4"
     sodipodi:nodetypes="scscscscs" /></g>
<g
   id="右耳"
   vectornator:layerName="右耳"
   transform="translate(0.11381646)">
<path
   stroke="#000000"
   stroke-width="10"
   d="m 1134.69,593.597 c -100.49,-28.458 -13.6,-366.789 5.31,-350.905 9.74,8.187 19.45,70.644 81.27,138.216 63.61,69.516 75.25,162.395 42.81,185.372"
   fill="#ffffff"
   stroke-linecap="butt"
   opacity="1"
   stroke-linejoin="round"
   id="path193" />
<path
   stroke="#000000"
   stroke-width="10"
   d="m 1080.22,487.364 -2.61,-34.228 c -0.17,-2.313 1.56,-4.331 3.87,-4.507 l 68.34,5.245 c 2.31,-0.176 4.33,1.556 4.5,3.868 l 1.82,17.044 c 0.18,2.313 -1.55,4.33 -3.86,4.507 l -67.55,11.94 c -2.31,0.176 -4.33,-1.556 -4.51,-3.869 z"
   fill="#000000"
   stroke-linecap="butt"
   opacity="1"
   stroke-linejoin="round"
   id="path195" />
<path
   stroke="#000000"
   stroke-width="10"
   d="m 1079.1,427.237 3.77,-34.12 c 0.26,-2.306 2.33,-3.968 4.64,-3.713 l 66.18,17.801 c 2.31,0.255 3.97,2.33 3.71,4.636 l -1.36,17.086 c -0.26,2.305 -2.33,3.968 -4.64,3.713 l -68.59,-0.767 c -2.3,-0.255 -3.97,-2.331 -3.71,-4.636 z"
   fill="#000000"
   stroke-linecap="butt"
   opacity="1"
   stroke-linejoin="round"
   id="path197" />
</g>
<g
   id="左耳"
   vectornator:layerName="左耳"
   transform="translate(0.11381646)">
<path
   stroke="#000000"
   stroke-width="10"
   d="m 1636.29,604.898 c 100.56,-20.608 39.96,-358.776 20.28,-344.57 -9.9,7.14 -46.42,93.639 -104.27,145.406 -57.28,51.257 -71.78,137.412 -40.86,162.963"
   fill="#ffffff"
   stroke-linecap="butt"
   opacity="1"
   stroke-linejoin="round"
   id="path200" />
</g>
<g
   id="右めもと"
   vectornator:layerName="右めもと"
   transform="translate(0.11381646)">
<path
   stroke="#000000"
   stroke-width="25.6124"
   d="m 1225.02,848.893 c -5.54,0.587 -10.66,1.228 -14.15,2.015 -17.44,3.929 -36.91,6.74 -55.96,9.758 -16.3,2.582 -32.28,5.315 -46.41,9.028 z"
   fill="#ffffff"
   stroke-linecap="butt"
   opacity="1"
   stroke-linejoin="round"
   id="path203" />
</g>
<g
   id="右目"
   vectornator:layerName="右目"
   transform="translate(0.11381646)">
<path
   stroke="#000000"
   stroke-width="25.6124"
   d="m 1201.58,822.163 c -3.47,0.011 -70.54,4.747 -83.16,9.14 l 82.98,-9.075 c 0.37,-0.043 0.41,-0.066 0.18,-0.065 z"
   fill="none"
   stroke-linecap="butt"
   opacity="1"
   stroke-linejoin="round"
   id="path206" />
</g>
<g
   id="右まつげ"
   vectornator:layerName="右まつげ"
   transform="translate(0.11381646)">
<path
   stroke="#000000"
   stroke-width="25.6124"
   d="m 1217.6,796.184 c 0.62,-0.078 -8.66,-1.593 -22.24,-3.398 -29.39,-3.907 -78.96,-9.175 -92.09,-4.199 z"
   fill="none"
   stroke-linecap="butt"
   opacity="1"
   stroke-linejoin="round"
   id="path209" />
</g>
<g
   id="左めもと"
   vectornator:layerName="左めもと"
   transform="translate(0.11381646)">
<path
   stroke="#000000"
   stroke-width="25.6124"
   d="m 1582.56,856.588 c -19.27,-2.53 -45.46,-5.76 -56.04,-5.258 l 94.03,12.319 c 10.34,1.336 -16.47,-4.234 -21.86,-4.93 -4.05,-0.524 -9.7,-1.288 -16.13,-2.131 z"
   fill="none"
   stroke-linecap="butt"
   opacity="1"
   stroke-linejoin="round"
   id="path212" />
</g>
<g
   id="左目"
   vectornator:layerName="左目"
   transform="translate(0.11381646)">
<path
   stroke="#000000"
   stroke-width="25.6124"
   d="m 1567.87,818.512 c -22.53,0.014 -46.34,2.028 -46.34,7.131 l 84.98,-2.248 c 5.14,-2.91 -16.11,-4.896 -38.64,-4.883 z"
   fill="none"
   stroke-linecap="butt"
   opacity="1"
   stroke-linejoin="round"
   id="path215" />
</g>
<g
   id="左まつげ"
   vectornator:layerName="左まつげ"
   transform="translate(0.11381646)">
<path
   stroke="#000000"
   stroke-width="25.6124"
   d="m 1590.97,779.316 c -31.9,2.864 -80.06,9.065 -77.83,10.991 l 103.31,-10.902 c 6.95,-2.32 -6.33,-1.807 -25.48,-0.089 z"
   fill="none"
   stroke-linecap="butt"
   opacity="1"
   stroke-linejoin="round"
   id="path218" />
</g>
<g
   id="右頬"
   vectornator:layerName="右頬"
   transform="translate(0.11381646)">
<path
   stroke="#000000"
   stroke-width="10"
   d="m 1124.42,1178.25 9.85,14.02 -24.39,31.07 24.17,25.68 -12.76,13.16 -28.64,-17.04 -14.77,34.52 -21.71,-7.77 2.47,-31.5 -32.23,2.37 -0.67,-27.61 34.01,-4.54 -6.93,-37.76 18.79,-5.82 13.65,31.28 z"
   fill="#000000"
   stroke-linecap="butt"
   opacity="1"
   stroke-linejoin="round"
   id="path221" />
</g>
<g
   id="左頬"
   vectornator:layerName="左頬"
   transform="translate(0.11381646)">
<path
   stroke="#000000"
   stroke-width="10"
   d="m 1563.34,1209.42 5.34,-16.28 39.49,0.93 6.09,-34.74 18.18,2.34 3.5,33.15 36.49,-8.85 6.78,22.04 -26.71,16.89 21.2,24.39 -21.72,17.07 -24,-24.53 -26.09,28.17 -15.92,-11.57 16.89,-29.66 z"
   fill="#000000"
   stroke-linecap="butt"
   opacity="1"
   stroke-linejoin="round"
   id="path224" />
</g>
<g
   id="口の中"
   vectornator:layerName="口の中"
   transform="translate(0.11381646)">
<path
   d="m 1268.84,1416.16 c -128,-37 -8.37,-103.53 96,-99 105.75,4.6 225.88,44.17 85,97 0,0 -44.45,14.02 -89.7,14.52 -45.25,0.5 -91.3,-12.52 -91.3,-12.52 z"
   opacity="1"
   fill="#ff6161"
   id="path227" />
</g>
<g
   id="下唇"
   vectornator:layerName="下唇"
   transform="translate(0.11381646)">
<path
   stroke="#000000"
   stroke-width="14.4"
   d="m 1513.94,1367.32 c 0.15,13.68 -18,29.55 -64.1,46.84 0,0 -44.45,14.02 -89.7,14.52 -45.25,0.5 -91.3,-12.52 -91.3,-12.52 -41.75,-12.06 -57.15,-27.27 -55.34,-42.13"
   fill="none"
   stroke-linecap="butt"
   opacity="1"
   stroke-linejoin="round"
   id="path230"
   style="stroke-linecap:round"
   sodipodi:nodetypes="ccscc" />
</g>
<g
   id="上唇"
   vectornator:layerName="上唇"
   transform="translate(0.11381646)">
<path
   stroke="#000000"
   stroke-width="14.4"
   d="m 1213.5,1374.03 c 3.75,-30.71 81.01,-59.92 151.34,-56.87 71.14,3.1 148.79,22.02 149.1,50.16"
   fill="none"
   stroke-linecap="butt"
   opacity="1"
   stroke-linejoin="round"
   id="path233"
   style="stroke-linecap:round"
   sodipodi:nodetypes="ccc" />
</g>
<g
   id="メガネ"
   vectornator:layerName="メガネ"
   transform="translate(0.11381646)">
<path
   stroke="#000000"
   stroke-width="39.805"
   d="m 1010.3,783.213 c -9.3,62.255 25.65,150.35 25.65,150.35 0,0 44.5,10.292 107.56,10.077 63.07,-0.214 123.33,8.092 125.2,2.425 22.66,-68.702 44.65,-146.439 44.65,-146.439 l 83.14,2.493 c 0,0 32.91,107.418 41.17,133.797 3.2,10.245 95.01,18.366 158.24,16.326 62.18,-2.006 101.38,-10.875 101.38,-10.875 0,0 38,-85.3 39.59,-160.11"
   fill="none"
   stroke-linecap="butt"
   opacity="1"
   stroke-linejoin="round"
   id="path236" />
</g>
</svg>
