<?xml version="1.0" encoding="UTF-8" standalone="no"?>
<!-- Created with Vectornator for iOS (http://vectornator.io/) -->

<svg
   height="100%"
   style="fill-rule:nonzero;clip-rule:evenodd;stroke-linecap:round;stroke-linejoin:round;"
   xml:space="preserve"
   width="100%"
   version="1.1"
   viewBox="0 0 2642.98 3608.14"
   id="svg239"
   sodipodi:docname="デフォルメダーラヘスト(口改変).svg"
   inkscape:version="1.1 (c68e22c387, 2021-05-23)"
   inkscape:export-filename="C:\Users\kimiaki\胴体.png"
   inkscape:export-xdpi="96"
   inkscape:export-ydpi="96"
   xmlns:inkscape="http://www.inkscape.org/namespaces/inkscape"
   xmlns:sodipodi="http://sodipodi.sourceforge.net/DTD/sodipodi-0.dtd"
   xmlns="http://www.w3.org/2000/svg"
   xmlns:svg="http://www.w3.org/2000/svg"
   xmlns:vectornator="http://vectornator.io"><sodipodi:namedview
   id="namedview241"
   pagecolor="#ffffff"
   bordercolor="#666666"
   borderopacity="1.0"
   inkscape:pageshadow="2"
   inkscape:pageopacity="0.0"
   inkscape:pagecheckerboard="0"
   showgrid="false"
   inkscape:zoom="0.64354487"
   inkscape:cx="1215.9214"
   inkscape:cy="1455.221"
   inkscape:window-width="1450"
   inkscape:window-height="1081"
   inkscape:window-x="829"
   inkscape:window-y="447"
   inkscape:window-maximized="0"
   inkscape:current-layer="svg239" />
<metadata
   id="metadata126">
<vectornator:setting
   key="DimensionsVisible"
   value="1" />
<vectornator:setting
   key="PencilOnly"
   value="0" />
<vectornator:setting
   key="SnapToPoints"
   value="0" />
<vectornator:setting
   key="GuidesVisible"
   value="1" />
<vectornator:setting
   key="CMYKEnabledKey"
   value="0" />
<vectornator:setting
   key="RulersVisible"
   value="1" />
<vectornator:setting
   key="SnapToEdges"
   value="0" />
<vectornator:setting
   key="OutlineMode"
   value="0" />
<vectornator:setting
   key="DisplayWhiteBackground"
   value="0" />
<vectornator:setting
   key="doHistoryDisabled"
   value="0" />
<vectornator:setting
   key="SnapToGuides"
   value="1" />
<vectornator:setting
   key="TimeLapseWatermarkDisabled"
   value="0" />
<vectornator:setting
   key="DynamicGuides"
   value="0" />
<vectornator:setting
   key="IsolateActiveLayer"
   value="0" />
<vectornator:setting
   key="SnapToGrid"
   value="0" />
<vectornator:setting
   key="Units"
   value="Pixels" />
</metadata>
<defs
   id="defs128" />
<g
   id="尻尾"
   vectornator:layerName="尻尾">
<path
   stroke="#000000"
   stroke-width="10"
   d="M1665.99+2936.21C1732.26+3022.61+1987.76+3169.13+1987.76+3169.13C1987.76+3169.13+1966.38+3028.84+1818.85+2847.14C1671.33+2665.44+1595.43+2632.93+1595.43+2632.93C1595.43+2632.93+1599.71+2849.81+1665.99+2936.21Z"
   fill="#ffffff"
   stroke-linecap="butt"
   opacity="1"
   stroke-linejoin="round"
   id="path130" />
</g>
<g
   id="胴体"
   vectornator:layerName="胴体">
<path
   stroke="#000000"
   stroke-width="10"
   d="m 1266.49,2848.63 c 0,0 16.7,-40.83 80.09,-40.83 67.37,0 77.76,39.85 77.76,39.85 l 10.37,451.41 c 0,0 2.81,34.37 76.96,34.37 58.11,0 67.08,-33.39 67.08,-33.39 0,0 158.51,-1192.47 146.51,-1505.47 -6.39,-166.57 -84,-363 -172,-404 -89.53,-41.71 -301.81,-35.29 -375,-3 -68,30 -163.28,118.62 -188.004,403 -29.792,342.61 104.544,1491.88 104.544,1491.88 0,0 3.49,43.06 85.37,44.38 76.7,1.24 71.34,-40.47 71.34,-40.47 z"
   fill="#ffffff"
   stroke-linecap="butt"
   opacity="1"
   stroke-linejoin="round"
   id="path133"
   sodipodi:nodetypes="csccscccsccccc" />
<path
   stroke="#000000"
   stroke-width="18.255"
   d="M1166.22+1678.72C1120.24+1664.42+1093.19+1721.89+1138.8+1736.08C1163.38+1743.73+1189.07+1679.65+1186.08+1678.72C1182.07+1677.47+1160.5+1762.19+1202.15+1751.08C1261.87+1735.16+1238.97+1621.76+1160.55+1624.89C1094.35+1627.54+1055.29+1703.47+1083.95+1752.84C1108.54+1795.2+1201.64+1810.27+1223.9+1768.73"
   fill="none"
   stroke-linecap="butt"
   opacity="1"
   stroke-linejoin="round"
   id="path135" />
<g
   opacity="1"
   id="g143">
<path
   stroke="#000000"
   stroke-width="18.255"
   d="M1598.59+1483.02C1506.25+1462.22+1465.22+1637.66+1584.97+1637.66"
   fill="none"
   stroke-linecap="butt"
   opacity="1"
   stroke-linejoin="round"
   id="path137" />
<path
   stroke="#000000"
   stroke-width="18.255"
   d="M1486+1530.48C1504.13+1535.93+1545.29+1539.48+1564.99+1539.48"
   fill="none"
   stroke-linecap="butt"
   opacity="1"
   stroke-linejoin="round"
   id="path139" />
<path
   stroke="#000000"
   stroke-width="18.255"
   d="M1476.01+1563.21C1505.97+1573.84+1540.58+1570.57+1564.08+1570.57"
   fill="none"
   stroke-linecap="butt"
   opacity="1"
   stroke-linejoin="round"
   id="path141" />
</g>
<g
   opacity="1"
   id="g151">
<path
   stroke="#000000"
   stroke-width="18.255"
   d="M1113.56+2686.87C1063.12+2686.87+1082.44+2603.56+1128.47+2606.55C1170.15+2609.26+1167.47+2695.72+1123.93+2695.72"
   fill="none"
   stroke-linecap="butt"
   opacity="1"
   stroke-linejoin="round"
   id="path145" />
<path
   stroke="#000000"
   stroke-width="18.255"
   d="M1205.6+2595.17C1205.6+2624.43+1193.34+2667.51+1166.47+2705C1143.78+2736.66+1108.06+2764.5+1086.99+2774.78"
   fill="none"
   stroke-linecap="butt"
   opacity="1"
   stroke-linejoin="round"
   id="path147" />
<path
   stroke="#000000"
   stroke-width="18.255"
   d="M1219.28+2750.62C1192.62+2764.14+1179.7+2713.6+1207.51+2700.78C1257.51+2677.75+1281.42+2747.17+1229.67+2764.66"
   fill="none"
   stroke-linecap="butt"
   opacity="1"
   stroke-linejoin="round"
   id="path149" />
</g>
<path
   stroke="#000000"
   stroke-width="18.255"
   d="M1392.83+2098.45C1371.92+2100.46+1364.08+2156.05+1306.12+2134.32C1248.17+2112.6+1335.54+2041.53+1379.33+2030.43C1423.12+2019.34+1434.54+1969.95+1384.7+1980.07C1288.45+1999.61+1371.28+2149.21+1426.01+2175.26"
   fill="none"
   stroke-linecap="round"
   opacity="1"
   stroke-linejoin="round"
   id="path153" />
<g
   opacity="1"
   id="g159">
<path
   stroke="#000000"
   stroke-width="18.255"
   d="M1640.48+2478.62C1636.99+2466.64+1602.55+2478.32+1595.86+2482.32C1566.41+2499.95+1628.04+2573.39+1628.35+2605.93C1628.65+2638.38+1586.57+2650.26+1565.66+2618.93"
   fill="none"
   stroke-linecap="round"
   opacity="1"
   stroke-linejoin="round"
   id="path155" />
<path
   stroke="#000000"
   stroke-width="18.255"
   d="M1591.58+2549.45C1589.53+2526.96+1549.31+2539.81+1549.37+2557.19C1549.45+2582.6+1628.94+2774.95+1528.61+2695.44C1528.61+2695.44+1512.22+2672.63+1520.65+2646.3"
   fill="none"
   stroke-linecap="round"
   opacity="1"
   stroke-linejoin="round"
   id="path157" />
</g>
<g
   opacity="1"
   id="g165">
<path
   stroke="#000000"
   stroke-width="21.4171"
   d="M1152.2+2951.81C1194.6+2928.91+1251.97+2956.92+1238.63+3013.11C1228.17+3057.2+1214.32+3050.87+1183+3047.17C1151.68+3043.46+1156.45+3036.47+1129.08+3068.26"
   fill="none"
   stroke-linecap="butt"
   opacity="1"
   stroke-linejoin="round"
   id="path161" />
<path
   d="M1093.43+3082.73C1102.06+3070.33+1104.83+3067.97+1119.63+3080.8C1134.43+3093.64+1133.62+3097.05+1119.35+3112.47C1105.07+3127.89+1099.84+3115.11+1095.59+3110.76C1085.49+3100.44+1084.8+3095.13+1093.43+3082.73Z"
   opacity="1"
   fill="#000000"
   id="path163" />
</g>
<g
   opacity="1"
   id="g171">
<path
   d="M1547.31+3011.37C1544.04+3009.36+1500.83+2949.04+1490.98+2932.83C1474.65+2905.98+1467.54+2895.22+1489.5+2885.34C1503.3+2879.13+1517.99+2869.44+1530.03+2907.63C1533.57+2918.83+1538.87+2932.12+1544.3+2945.15C1555.23+2971.39+1566.66+2996.58+1565.11+3001.64C1563.12+3008.14+1548.91+3012.36+1547.31+3011.37Z"
   opacity="1"
   fill="#000000"
   id="path167" />
<path
   d="M1561.67+3044.92C1553.98+3033.64+1552.71+3030.58+1564.8+3022.95C1576.89+3015.33+1576.82+3014.39+1585.76+3031.3C1594.71+3048.2+1586.79+3050.83+1582.82+3052.8C1573.41+3057.46+1569.35+3056.2+1561.67+3044.92Z"
   opacity="1"
   fill="#000000"
   id="path169" />
</g>
</g>
<g
   id="右うで"
   vectornator:layerName="右うで">
<path
   stroke="#000000"
   stroke-width="10"
   d="M1032.26+1804.07L1128.26+2451.93C1128.26+2451.93+1135.61+2495.97+1192.06+2494.79C1255.45+2493.47+1247.26+2442.93+1247.26+2442.93L1240.93+1851.61"
   fill="#ffffff"
   stroke-linecap="butt"
   opacity="1"
   stroke-linejoin="round"
   id="path174" />
</g>
<g
   id="左うで"
   vectornator:layerName="左うで">
<path
   stroke="#000000"
   stroke-width="10"
   d="M1460.16+1860.86L1438.65+2451.26C1438.65+2451.26+1433.81+2502.27+1497.14+2505.36C1551.29+2508+1565.65+2460.26+1565.65+2460.26L1670.15+1825.2"
   fill="#ffffff"
   stroke-linecap="butt"
   opacity="1"
   stroke-linejoin="round"
   id="path177" />
<g
   opacity="1"
   id="g187">
<path
   stroke="#000000"
   stroke-width="18.255"
   d="M1508.69+1877.51C1532.14+1898.59+1545.07+1959.18+1561.88+1991.61"
   fill="none"
   stroke-linecap="round"
   opacity="1"
   stroke-linejoin="round"
   id="path179" />
<path
   stroke="#000000"
   stroke-width="18.255"
   d="M1548.13+1844.1C1547.86+1853.11+1553.12+1867.52+1557.54+1879.41C1572.95+1920.77+1586.42+1941.08+1608.43+1976.5"
   fill="none"
   stroke-linecap="round"
   opacity="1"
   stroke-linejoin="round"
   id="path181" />
<path
   stroke="#000000"
   stroke-width="18.255"
   d="M1592.04+1876.93C1571.74+1876.93+1528.31+1932.81+1501.1+1932.81"
   fill="none"
   stroke-linecap="round"
   opacity="1"
   stroke-linejoin="round"
   id="path183" />
<path
   stroke="#000000"
   stroke-width="18.255"
   d="M1611.33+1901.4C1611.33+1901.4+1588+1917.66+1582.21+1921.72C1558.63+1938.26+1541.67+1949.29+1525.26+1975.68"
   fill="none"
   stroke-linecap="round"
   opacity="1"
   stroke-linejoin="round"
   id="path185" />
</g>
</g>
<g
   id="頭"
   vectornator:layerName="頭">
<path
   stroke="#000000"
   stroke-width="10"
   d="M1406.74+440.662C1502.74+442.662+1645.74+469.662+1689.74+600.662C1740.8+752.675+1623.74+1059.66+1699.74+1212.66C1766.06+1346.17+1520.74+1452.66+1367.74+1452.66C1198.72+1452.66+919.622+1346.87+999.742+1209.66C1144.67+961.457+996.075+758.772+1059.74+607.662C1120.3+463.935+1310.74+438.662+1406.74+440.662Z"
   fill="#ffffff"
   stroke-linecap="butt"
   opacity="1"
   stroke-linejoin="round"
   id="path190" />
</g>
<g
   id="右耳"
   vectornator:layerName="右耳">
<path
   stroke="#000000"
   stroke-width="10"
   d="M1134.69+593.597C1034.2+565.139+1121.09+226.808+1140+242.692C1149.74+250.879+1159.45+313.336+1221.27+380.908C1284.88+450.424+1296.52+543.303+1264.08+566.28"
   fill="#ffffff"
   stroke-linecap="butt"
   opacity="1"
   stroke-linejoin="round"
   id="path193" />
<path
   stroke="#000000"
   stroke-width="10"
   d="M1080.22+487.364L1077.61+453.136C1077.44+450.823+1079.17+448.805+1081.48+448.629L1149.82+453.874C1152.13+453.698+1154.15+455.43+1154.32+457.742L1156.14+474.786C1156.32+477.099+1154.59+479.116+1152.28+479.293L1084.73+491.233C1082.42+491.409+1080.4+489.677+1080.22+487.364Z"
   fill="#000000"
   stroke-linecap="butt"
   opacity="1"
   stroke-linejoin="round"
   id="path195" />
<path
   stroke="#000000"
   stroke-width="10"
   d="M1079.1+427.237L1082.87+393.117C1083.13+390.811+1085.2+389.149+1087.51+389.404L1153.69+407.205C1156+407.46+1157.66+409.535+1157.4+411.841L1156.04+428.927C1155.78+431.232+1153.71+432.895+1151.4+432.64L1082.81+431.873C1080.51+431.618+1078.84+429.542+1079.1+427.237Z"
   fill="#000000"
   stroke-linecap="butt"
   opacity="1"
   stroke-linejoin="round"
   id="path197" />
</g>
<g
   id="左耳"
   vectornator:layerName="左耳">
<path
   stroke="#000000"
   stroke-width="10"
   d="M1636.29+604.898C1736.85+584.29+1676.25+246.122+1656.57+260.328C1646.67+267.468+1610.15+353.967+1552.3+405.734C1495.02+456.991+1480.52+543.146+1511.44+568.697"
   fill="#ffffff"
   stroke-linecap="butt"
   opacity="1"
   stroke-linejoin="round"
   id="path200" />
</g>
<g
   id="右めもと"
   vectornator:layerName="右めもと">
<path
   stroke="#000000"
   stroke-width="25.6124"
   d="M1225.02+848.893C1219.48+849.48+1214.36+850.121+1210.87+850.908C1193.43+854.837+1173.96+857.648+1154.91+860.666C1138.61+863.248+1122.63+865.981+1108.5+869.694L1225.02+848.893Z"
   fill="#ffffff"
   stroke-linecap="butt"
   opacity="1"
   stroke-linejoin="round"
   id="path203" />
</g>
<g
   id="右目"
   vectornator:layerName="右目">
<path
   stroke="#000000"
   stroke-width="25.6124"
   d="M1201.58+822.163C1198.11+822.174+1131.04+826.91+1118.42+831.303L1201.4+822.228C1201.77+822.185+1201.81+822.162+1201.58+822.163Z"
   fill="none"
   stroke-linecap="butt"
   opacity="1"
   stroke-linejoin="round"
   id="path206" />
</g>
<g
   id="右まつげ"
   vectornator:layerName="右まつげ">
<path
   stroke="#000000"
   stroke-width="25.6124"
   d="M1217.6+796.184C1218.22+796.106+1208.94+794.591+1195.36+792.786C1165.97+788.879+1116.4+783.611+1103.27+788.587L1217.6+796.184Z"
   fill="none"
   stroke-linecap="butt"
   opacity="1"
   stroke-linejoin="round"
   id="path209" />
</g>
<g
   id="左めもと"
   vectornator:layerName="左めもと">
<path
   stroke="#000000"
   stroke-width="25.6124"
   d="M1582.56+856.588C1563.29+854.058+1537.1+850.828+1526.52+851.33L1620.55+863.649C1630.89+864.985+1604.08+859.415+1598.69+858.719C1594.64+858.195+1588.99+857.431+1582.56+856.588Z"
   fill="none"
   stroke-linecap="butt"
   opacity="1"
   stroke-linejoin="round"
   id="path212" />
</g>
<g
   id="左目"
   vectornator:layerName="左目">
<path
   stroke="#000000"
   stroke-width="25.6124"
   d="M1567.87+818.512C1545.34+818.526+1521.53+820.54+1521.53+825.643L1606.51+823.395C1611.65+820.485+1590.4+818.499+1567.87+818.512Z"
   fill="none"
   stroke-linecap="butt"
   opacity="1"
   stroke-linejoin="round"
   id="path215" />
</g>
<g
   id="左まつげ"
   vectornator:layerName="左まつげ">
<path
   stroke="#000000"
   stroke-width="25.6124"
   d="M1590.97+779.316C1559.07+782.18+1510.91+788.381+1513.14+790.307L1616.45+779.405C1623.4+777.085+1610.12+777.598+1590.97+779.316Z"
   fill="none"
   stroke-linecap="butt"
   opacity="1"
   stroke-linejoin="round"
   id="path218" />
</g>
<g
   id="右頬"
   vectornator:layerName="右頬">
<path
   stroke="#000000"
   stroke-width="10"
   d="M1124.42+1178.25L1134.27+1192.27L1109.88+1223.34L1134.05+1249.02L1121.29+1262.18L1092.65+1245.14L1077.88+1279.66L1056.17+1271.89L1058.64+1240.39L1026.41+1242.76L1025.74+1215.15L1059.75+1210.61L1052.82+1172.85L1071.61+1167.03L1085.26+1198.31L1124.42+1178.25Z"
   fill="#000000"
   stroke-linecap="butt"
   opacity="1"
   stroke-linejoin="round"
   id="path221" />
</g>
<g
   id="左頬"
   vectornator:layerName="左頬">
<path
   stroke="#000000"
   stroke-width="10"
   d="M1563.34+1209.42L1568.68+1193.14L1608.17+1194.07L1614.26+1159.33L1632.44+1161.67L1635.94+1194.82L1672.43+1185.97L1679.21+1208.01L1652.5+1224.9L1673.7+1249.29L1651.98+1266.36L1627.98+1241.83L1601.89+1270L1585.97+1258.43L1602.86+1228.77L1563.34+1209.42Z"
   fill="#000000"
   stroke-linecap="butt"
   opacity="1"
   stroke-linejoin="round"
   id="path224" />
</g>
<g
   id="口の中"
   vectornator:layerName="口の中">
<path
   d="M1268.84+1416.16C1140.84+1379.16+1260.47+1312.63+1364.84+1317.16C1470.59+1321.76+1590.72+1361.33+1449.84+1414.16C1449.84+1414.16+1405.39+1428.18+1360.14+1428.68C1314.89+1429.18+1268.84+1416.16+1268.84+1416.16Z"
   opacity="1"
   fill="#ff6161"
   id="path227" />
</g>
<g
   id="下唇"
   vectornator:layerName="下唇">
<path
   stroke="#000000"
   stroke-width="14.4"
   d="m 1513.94,1367.32 c 0.15,13.68 -18,29.55 -64.1,46.84 0,0 -44.45,14.02 -89.7,14.52 -45.25,0.5 -91.3,-12.52 -91.3,-12.52 -41.75,-12.06 -57.15,-27.27 -55.34,-42.13"
   fill="none"
   stroke-linecap="butt"
   opacity="1"
   stroke-linejoin="round"
   id="path230"
   style="stroke-linecap:round"
   sodipodi:nodetypes="ccscc" />
</g>
<g
   id="上唇"
   vectornator:layerName="上唇">
<path
   stroke="#000000"
   stroke-width="14.4"
   d="m 1213.5,1374.03 c 3.75,-30.71 81.01,-59.92 151.34,-56.87 71.14,3.1 148.79,22.02 149.1,50.16"
   fill="none"
   stroke-linecap="butt"
   opacity="1"
   stroke-linejoin="round"
   id="path233"
   style="stroke-linecap:round"
   sodipodi:nodetypes="ccc" />
</g>
<g
   id="メガネ"
   vectornator:layerName="メガネ">
<path
   stroke="#000000"
   stroke-width="39.805"
   d="M1010.3+783.213C1001+845.468+1035.95+933.563+1035.95+933.563C1035.95+933.563+1080.45+943.855+1143.51+943.64C1206.58+943.426+1266.84+951.732+1268.71+946.065C1291.37+877.363+1313.36+799.626+1313.36+799.626L1396.5+802.119C1396.5+802.119+1429.41+909.537+1437.67+935.916C1440.87+946.161+1532.68+954.282+1595.91+952.242C1658.09+950.236+1697.29+941.367+1697.29+941.367C1697.29+941.367+1735.29+856.067+1736.88+781.257"
   fill="none"
   stroke-linecap="butt"
   opacity="1"
   stroke-linejoin="round"
   id="path236" />
</g>
</svg>
