<?xml version="1.0" encoding="UTF-8" standalone="no"?>
<!-- Created with Inkscape (http://www.inkscape.org/) -->

<svg
   width="113.30155mm"
   height="252.69843mm"
   viewBox="0 0 113.30155 252.69843"
   version="1.1"
   id="svg5"
   sodipodi:docname="バストアップ.svg"
   inkscape:version="1.1 (c68e22c387, 2021-05-23)"
   xmlns:inkscape="http://www.inkscape.org/namespaces/inkscape"
   xmlns:sodipodi="http://sodipodi.sourceforge.net/DTD/sodipodi-0.dtd"
   xmlns="http://www.w3.org/2000/svg"
   xmlns:svg="http://www.w3.org/2000/svg">
  <sodipodi:namedview
     id="namedview836"
     pagecolor="#ffffff"
     bordercolor="#666666"
     borderopacity="1.0"
     inkscape:pageshadow="2"
     inkscape:pageopacity="0.0"
     inkscape:pagecheckerboard="0"
     inkscape:document-units="mm"
     showgrid="false"
     inkscape:zoom="0.91405892"
     inkscape:cx="214.42819"
     inkscape:cy="477.54033"
     inkscape:window-width="1450"
     inkscape:window-height="1081"
     inkscape:window-x="452"
     inkscape:window-y="207"
     inkscape:window-maximized="0"
     inkscape:current-layer="svg5" />
  <defs
     id="defs2" />
  <path
     style="fill:#ffffff;stroke:none;stroke-width:0.264583px;stroke-linecap:butt;stroke-linejoin:miter;stroke-opacity:1;fill-opacity:1"
     d="M 108.9767,252.66655 1.4803856,252.66643 c 0,0 -0.3225463,-41.65022 0.8352929,-48.01834 C 3.473518,198.27998 10.377289,173.45308 18.937986,166.32799 15.63083,163.25534 0.75105704,155.39796 5.1516155,143.26163 9.5521739,131.1253 13.099456,128.94777 12.38308,120.86295 11.666703,112.77813 8.391839,65.70196 8.391839,63.041132 c 0,-2.660827 5.628673,-19.751524 7.470784,-20.058541 -0.409358,-2.558489 1.330413,-38.3773134 7.880141,-41.4474985 1.637432,5.5263331 11.871383,19.7515235 13.201795,20.4679005 1.330415,0.716376 3.172526,4.605277 4.605279,6.03803 2.763165,-0.921054 31.263098,-3.130678 37.327522,0.788469 2.175523,-1.504844 9.953326,-7.440536 12.000116,-10.408382 2.04679,-2.967845 10.438634,-13.9181719 10.847984,-14.941567 0,0 1.38159,1.0233951 1.84212,3.3260339 0.46052,2.3026388 1.43275,25.0731781 0.97222,27.9386841 -0.46053,2.865506 -2.22334,11.215507 -2.60966,12.690098 1.0234,4.04241 2.86551,18.779299 2.35381,25.943064 -0.5117,7.163765 -4.502936,47.894887 -3.47954,52.704847 1.02339,4.80995 0.30702,6.85674 3.07018,11.56436 2.76317,4.70762 3.47955,8.49418 3.47955,10.64331 0,2.14913 -3.99124,9.31289 -6.44739,11.155 -2.456149,1.84211 -5.240278,4.35314 -6.072475,4.71496 2.134766,2.2795 13.568425,28.18615 15.160455,38.46198 1.59203,10.27582 0.78617,45.30907 -1.01803,50.04467 z"
     id="path856" />
  <g
     id="layer1">
    <path
       style="fill:#000000;stroke-width:0.264583"
       d="m 0.12344528,248.82685 c -0.319,-6.38117 0.0268,-29.57951 0.5067603,-33.99576 C 3.0668756,192.41 7.7716756,177.93516 15.930656,167.75764 c 1.60268,-1.99918 1.73806,-2.25737 1.32557,-2.52801 -0.25266,-0.16578 -1.29283,-0.79692 -2.31148,-1.40254 -3.9833,-2.36818 -8.0302904,-6.16283 -9.8082304,-9.19665 -1.30796,-2.23188 -1.95464,-4.55009 -1.95368,-7.00351 10e-4,-2.99823 0.26768,-4.00751 2.01665,-7.63754 4.30959,-8.94466 4.9107104,-10.48744 5.5291804,-14.19059 0.7253,-4.34281 0.76249,-9.16645 0.12544,-16.27187 -0.31964,-3.56526 -0.66111,-6.55771 -0.75881,-6.64989 -0.0977,-0.0922 -0.9515404,-0.2997 -1.8974304,-0.46117 -0.94588,-0.16147 -2.01744,-0.51331 -2.38125,-0.78188 -1.33647,-0.98662 -3.85051,-9.367891 -4.65544,-15.520239 -0.39140002,-2.99163 -0.43968002,-8.62375 -0.077,-8.98489 0.0893,-0.0889 1.37298,0.0394 2.85266,0.28516 l 2.69034,0.44681 -0.16684,1.47941 c -0.20488,1.81669 0.24385,6.44385 0.95171,9.81378 0.5695,2.711218 1.87298,7.203132 2.04137,7.034742 0.0568,-0.0568 -0.14332,-2.942754 -0.44469,-6.413262 -2.13279,-24.56055 -0.52933,-38.601956 5.3498804,-46.848463 0.76399,-1.071623 0.78963,-1.19812 0.65144,-3.214285 -0.11349,-1.655837 -0.2612,-2.216108 -0.69988,-2.65479 -0.30581,-0.305816 -0.55602,-0.895252 -0.55602,-1.309856 0,-0.414608 -0.0766,-1.660483 -0.17032,-2.768611 l -0.17031,-2.014781 0.8301,-0.472535 c 0.9309,-0.529918 1.09291,-1.280568 0.32872,-1.523111 -0.77372,-0.245571 -0.83409,-0.730967 -0.43739,-3.516927 0.45059,-3.164342 0.54243,-3.403346 1.42634,-3.71189 0.65971,-0.23028 0.75605,-0.480663 1.45773,-3.788799 1.55702,-7.340777 4.08295,-14.9864306 5.6501,-17.10212056 0.75861,-1.024126 1.69567,-1.134068 2.25512,-0.264584 0.21067,0.327422 0.95559,2.02406296 1.65537,3.77031326 2.73428,6.8232193 5.01954,10.5125383 9.751429,15.7427073 0.85578,0.945886 2.33607,2.890383 3.28955,4.321107 1.67136,2.507927 1.76296,2.595901 2.5518,2.450581 6.52955,-1.202867 8.1378,-1.323713 17.751547,-1.333873 9.98461,-0.01056 12.59009,0.201089 17.82246,1.447692 l 1.9848,0.472876 2.92781,-2.687002 c 6.56087,-6.021256 9.170013,-9.044673 14.762823,-17.1067973 1.69845,-2.448338 3.344915,-4.5399243 3.748985,-4.7625003 0.6835,-0.376504 0.75233,-0.360296 1.34094,0.315773 1.47347,1.6924253 2.46447,9.1439646 2.70403,20.3323426 0.2174,10.153287 -0.37121,16.523359 -1.93464,20.93695 -0.8628,2.435691 -0.86248,3.055893 0.003,5.510768 2.32774,6.603695 2.60342,18.551425 0.82114,35.586465 -0.21315,2.03729 -0.51031,4.95432 -0.66035,6.482288 -0.15004,1.52797 -0.33201,3.131584 -0.40438,3.563594 -0.21153,1.26273 0.28392,0.46302 1.05769,-1.707184 1.54237,-4.325998 3.18361,-11.894508 3.38606,-15.614748 l 0.0648,-1.19062 2.87622,-0.0754 2.87623,-0.0754 -0.1838,2.05979 c -0.44385,4.97394 -1.46115,9.77353 -3.23668,15.270522 -1.18462,3.66754 -2.84999,7.755757 -3.41262,8.377467 -0.23856,0.2636 -1.10504,0.61222 -1.92551,0.7747 -0.82047,0.16248 -1.68197,0.34901 -1.91445,0.41452 -0.51725,0.14574 -0.89074,3.00623 -1.32699,10.1632 -0.68347,11.2127 0.42546,17.83252 4.44978,26.56313 1.87518,4.06813 2.38214,6.42485 1.96879,9.15231 -0.72242,4.76684 -4.29966,9.48615 -10.158985,13.40236 -0.98227,0.65652 -1.78594,1.23359 -1.78594,1.28238 0,0.0488 0.77873,1.26003 1.73052,2.69166 3.148965,4.73652 6.119295,11.0801 8.668645,18.51323 2.74468,8.00264 4.30756,15.26839 5.22839,24.30639 0.41955,4.11788 0.34645,19.55374 -0.13406,28.31042 -0.8624,15.71604 -0.71599,14.41979 -1.62867,14.41979 h -0.66327 l 0.16047,-2.3151 c 0.0883,-1.27331 0.27059,-3.80339 0.40518,-5.6224 0.98857,-13.35992 0.99691,-32.0223 0.0174,-38.89175 -1.26167,-8.8481 -3.14551,-16.1085 -6.26899,-24.16091 -2.00441,-5.16742 -6.124025,-13.01418 -8.289905,-15.79003 l -0.51365,-0.65831 -2.42247,1.1874 -2.422483,1.18739 1.118613,0.19097 c 0.61524,0.10502 1.17082,0.24317 1.23464,0.30699 0.0638,0.0638 0.0153,0.62548 -0.10785,1.24815 l -0.22389,1.13211 -1.769243,0.0577 c -2.36326,0.077 -4.31793,0.98459 -6.10738,2.83574 -0.7554,0.78146 -1.58855,1.79686 -1.85144,2.25646 l -0.47797,0.83563 1.40401,0.046 c 0.77222,0.0253 1.99934,0.0551 2.72694,0.0661 l 1.32292,0.0201 0.0814,1.12523 c 0.0739,1.02164 0.013,1.15148 -0.66146,1.41039 -0.40901,0.15701 -1.84706,0.24585 -3.19983,0.19769 -2.70002,-0.0961 -2.95531,0.0307 -2.96293,1.47254 l -0.004,0.76627 3.30729,-0.18376 3.30729,-0.18375 v 1.31196 1.31197 l -2.3151,0.16866 c -3.33456,0.24294 -4.29982,0.41411 -4.2969,0.762 0.001,0.16911 0.28078,0.90278 0.62079,1.63039 1.26704,2.7114 3.66148,4.19458 7.32076,4.53468 l 1.84546,0.17152 v 1.28493 1.28492 l -1.38906,-0.004 c -3.15905,-0.009 -6.56455,-1.31704 -8.45108,-3.2463 -1.14292,-1.16881 -2.4042,-3.62177 -2.69759,-5.24632 -0.17058,-0.94456 -0.19064,-0.95761 -1.6888,-1.09924 -0.8339,-0.0788 -1.83155,-0.26622 -2.21701,-0.41643 l -0.70083,-0.27309 0.43625,-1.21875 c 0.37712,-1.05357 0.51696,-1.19859 1.03174,-1.06998 0.32753,0.0818 1.1183,0.22044 1.75727,0.30802 l 1.16178,0.15924 0.18974,-1.12311 c 0.21485,-1.27164 -0.027,-1.56436 -1.32303,-1.60134 -1.55659,-0.0444 -1.69544,-0.22438 -1.27544,-1.65309 0.28838,-0.98098 0.47641,-1.24248 0.8245,-1.14672 0.24802,0.0682 1.00642,0.19937 1.68534,0.29143 l 1.23441,0.16739 0.84733,-1.58976 c 0.46604,-0.87438 1.5179,-2.33229 2.33747,-3.23981 0.84452,-0.93514 1.26087,-1.55638 0.96097,-1.43388 -4.08619,1.66915 -14.06249,3.798 -20.5052,4.37563 -12.466227,1.11767 -27.091227,-1.3855 -39.807676,-6.81336 l -3.42747,-1.46297 -1.15552,1.29891 c -3.1748,3.56873 -7.30371,11.00657 -9.5336004,17.1739 -2.70845,7.49091 -4.61853,16.1997 -5.86212,26.72762 -0.8898,7.53279 -1.13857,14.4303 -1.0185,28.23957 l 0.11214,12.89844 H 0.89800558 c -0.5645303,0 -0.5882503,-0.11758 -0.7743103,-3.83966 z M 65.083292,172.91326 c 12.09053,-1.63832 23.89303,-5.66769 31.617713,-10.79427 5.587975,-3.70853 8.975425,-8.08558 9.679845,-12.50769 0.25679,-1.6121 0.22672,-2.12634 -0.23208,-3.96875 -0.28991,-1.16416 -1.20063,-3.59574 -2.02382,-5.40349 -1.66607,-3.65873 -3.05453,-7.96469 -3.77313,-11.70142 -0.391845,-2.03763 -0.468905,-3.71156 -0.436655,-9.48571 0.0222,-3.98339 0.208555,-8.66833 0.431405,-10.84792 0.21574,-2.11005 0.36033,-3.87268 0.32131,-3.91696 -0.039,-0.0443 -1.364245,0.0748 -2.944955,0.26458 -3.73851,0.44889 -19.254513,0.44672 -23.246923,-0.003 -6.64043,-0.74843 -9.61809,-1.64179 -10.48431,-3.1455 -0.35876,-0.62281 -3.47525,-10.524229 -5.18778,-16.482189 l -0.49433,-1.71979 -3.778427,-0.22982 c -2.13789,-0.13003 -3.87519,-0.13003 -4.00128,0 -0.12256,0.1264 -1.06509,3.04209 -2.09453,6.47931 -2.81977,9.415062 -4.17036,13.238009 -4.91066,13.899979 -1.05755,0.94567 -2.86951,1.17299 -7.08109,0.88835 -2.07447,-0.14021 -6.688799,-0.32168 -10.254059,-0.40329 -3.56526,-0.0816 -8.24792,-0.27353 -10.40592,-0.4265 -2.158,-0.15298 -3.97377,-0.22801 -4.03504,-0.16673 -0.0613,0.0613 0.0715,1.94689 0.29497,4.19025 1.17492,11.79279 0.6522,19.02913 -1.8093,25.04708 -0.3720104,0.90951 -0.6438404,1.65365 -0.6040504,1.65365 0.0398,0 0.7637004,-0.23787 1.6087004,-0.52859 1.06526,-0.3665 1.6357,-0.44614 1.86033,-0.25971 0.17818,0.14787 0.66407,1.15964 1.07974,2.24837 0.41568,1.08873 0.84949,1.97951 0.96402,1.97951 0.11454,0 1.39217,-0.59412 2.83918,-1.32026 l 2.63093,-1.32027 0.93614,1.22602 c 0.51487,0.67431 0.93614,1.43256 0.93614,1.68499 0,0.25244 -0.7092,1.38392 -1.57599,2.5144 -1.79057,2.33528 -1.79626,2.23228 0.23318,4.21663 0.73854,0.72214 1.34281,1.51064 1.34281,1.75224 0,0.2416 -0.53621,0.93353 -1.19156,1.53761 l -1.19157,1.09835 -0.85895,-0.44297 c -0.47243,-0.24363 -1.30309,-0.72272 -1.8459,-1.06464 -0.54281,-0.34193 -1.0475,-0.62168 -1.12152,-0.62168 -0.074,0 -0.61351,0.9525 -1.19884,2.11666 -0.58533,1.16417 -1.22701,2.11667 -1.42595,2.11667 -0.19894,0 -1.12035,-0.28719 -2.04757,-0.63821 l -1.6858504,-0.6382 0.0313,-1.99784 0.0313,-1.99783 -2.28024,-0.0759 -2.28024,-0.0759 -0.13409,-1.19062 -0.13408,-1.19063 -0.32894,1.24164 c -0.85229,3.2172 -0.12452,7.02483 1.94296,10.16527 5.6740104,8.61868 23.7593404,16.71552 40.9874794,18.35017 1.60073,0.15189 3.32714,0.3248 3.83646,0.38426 1.7845,0.20832 10.742367,-0.11655 13.493757,-0.48938 z m -12.303127,-5.35561 c -9.94313,-0.83293 -12.81194,-1.36548 -14.0557,-2.60925 -1.44257,-1.44256 -0.0911,-3.00026 1.51845,-1.75012 0.34705,0.26956 2.11928,0.83511 3.93829,1.25677 3.22979,0.7487 3.47779,0.76647 10.58333,0.75792 7.042077,-0.008 7.361517,-0.0316 9.933947,-0.71851 3.15094,-0.84142 4.39722,-1.33358 4.8946,-1.93289 1.27299,-1.53385 3.01109,-0.48849 2.08011,1.25107 -0.44742,0.83601 -4.30194,2.50521 -6.85448,2.96834 -1.9779,0.35887 -9.839447,1.02917 -10.670537,0.9098 -0.17032,-0.0245 -0.78593,-0.0844 -1.36801,-0.13313 z m 36.115627,-18.51269 c -1.7711,-1.24951 -1.7575,-1.17166 -0.55771,-3.19121 0.59779,-1.00621 1.08688,-1.90556 1.08688,-1.99854 0,-0.093 -1.19063,-0.7291 -2.64584,-1.41359 -1.5568,-0.73228 -2.64583,-1.40192 -2.64583,-1.62691 0,-0.21031 0.18704,-1.02578 0.41565,-1.81216 l 0.41565,-1.42979 h 2.87965 2.879663 l 0.152,-0.8599 c 0.0836,-0.47294 0.30138,-1.69333 0.48395,-2.71197 l 0.33194,-1.85209 1.71085,0.0768 c 1.1102,0.0498 1.81352,0.21175 2.00326,0.46117 0.16082,0.2114 0.36087,1.2897 0.44456,2.39622 0.0837,1.10652 0.19908,2.05878 0.25643,2.11613 0.0573,0.0574 1.15477,-0.20027 2.43871,-0.5725 1.925855,-0.55832 2.393085,-0.61579 2.669615,-0.32834 0.35318,0.36713 1.17432,2.92055 1.17432,3.65166 0,0.23598 -0.71437,0.93285 -1.5875,1.54859 -0.873115,0.61575 -1.587495,1.2396 -1.587495,1.38634 0,0.14674 0.53578,0.83959 1.190625,1.53968 0.65484,0.70008 1.18573,1.43912 1.17975,1.6423 -0.014,0.47738 -3.262745,2.88298 -3.893375,2.88298 -0.2647,0 -1.06763,-0.59531 -1.78429,-1.32291 -0.71666,-0.72761 -1.44864,-1.32292 -1.62661,-1.32292 -0.17798,0 -1.00727,0.77391 -1.84287,1.71979 -1.6949,1.91859 -2.103113,2.03628 -3.541983,1.02116 z M 8.9254756,140.06514 c 0.61846,-0.0983 1.1244604,-0.31237 1.1244304,-0.47567 -6e-5,-0.4305 -0.7874004,-4.47985 -0.8912204,-4.58367 -0.0726,-0.0726 -1.98947,3.92147 -2.48905,5.18625 -0.10991,0.27827 0.0125,0.33075 0.49254,0.21109 0.35135,-0.0876 1.14484,-0.23969 1.7633,-0.338 z M 98.098025,98.856793 c 1.64149,-0.20355 3.051075,-0.43664 3.132415,-0.51799 0.24345,-0.24344 1.89709,-16.277882 2.33727,-22.663172 0.79965,-11.59974 0.28818,-19.7129 -1.60729,-25.49571 l -0.41659,-1.270971 -1.25764,1.311693 c -2.008085,2.094394 -4.290835,3.027638 -4.591685,1.877187 -0.10605,-0.40554 0.0249,-0.607227 0.51553,-0.79375 0.36174,-0.137533 0.75615,-0.25006 0.87645,-0.25006 0.12031,0 0.80638,-0.528328 1.52459,-1.174065 3.256695,-2.928051 4.901525,-8.990399 5.280815,-19.463436 0.33966,-9.378857 -0.9939,-24.5476743 -2.28595,-26.0019713 -0.10022,-0.112802 -1.39224,1.554072 -2.871165,3.704166 -5.39949,7.8499183 -8.802883,11.8939683 -13.451363,15.9834423 -4.54,3.994039 -6.66416,6.957502 -8.22418,11.473739 -0.63338,1.833644 -0.73115,2.523511 -0.73115,5.159375 0,3.050471 0.0981,3.476405 1.20293,5.221242 0.33025,0.521573 0.3197,0.645565 -0.0897,1.055005 -0.44224,0.442235 -0.49421,0.426942 -1.10959,-0.326453 -1.78204,-2.181718 -2.11763,-6.830304 -0.79245,-10.976878 0.73447,-2.298181 1.90684,-4.851352 2.82459,-6.151324 l 0.5135,-0.727369 -0.73208,-0.278339 c -1.36566,-0.519221 -6.82777,-1.32593 -10.6807,-1.577454 -7.60602,-0.496527 -15.418227,-0.219099 -21.914787,0.778246 -1.7939,0.275399 -3.3078,0.54688 -3.36421,0.603292 -0.0564,0.05641 0.19605,0.841864 0.56103,1.745456 2.66541,6.598894 2.55164,13.546884 -0.26487,16.175924 -0.64754,0.604441 -0.72149,0.61772 -1.13532,0.203891 -0.41383,-0.413832 -0.40688,-0.481798 0.10679,-1.043432 0.91023,-0.99522 1.38849,-2.189848 1.66928,-4.169677 0.85609,-6.036258 -2.23553,-13.858812 -8.10522,-20.508172 -4.779819,-5.41473 -6.960559,-8.950116 -9.751409,-15.8088553 -0.69575,-1.7098683 -1.37532,-3.1088533 -1.51015,-3.1088533 -0.6927,0 -3.1024,6.7627523 -4.5724,12.8322916 -1.24313,5.132821 -1.5784,7.004013 -1.29943,7.252444 0.12974,0.115543 1.24793,0.420936 2.48486,0.67865 3.132,0.652556 5.62171,1.29847 6.05451,1.57075 0.28062,0.176543 0.32969,0.662995 0.2104,2.085882 -0.0856,1.020604 -0.28304,1.983113 -0.43884,2.13891 -0.34548,0.34548 -3.47351,0.648957 -6.95055,0.674331 -2.32692,0.01699 -2.57969,0.06679 -2.57969,0.508373 0,0.428164 0.30367,0.511101 2.4219,0.661458 1.33204,0.09455 3.27812,0.17191 4.32462,0.17191 2.29535,0 2.63797,0.282396 2.89001,2.38197 0.27007,2.249654 0.18812,2.302939 -5.15986,3.355216 -2.53493,0.498776 -4.68236,0.989534 -4.77206,1.09057 -0.32364,0.364516 0.29306,4.727935 0.96082,6.798286 0.85444,2.649149 2.13876,4.456933 3.70802,5.219338 1.19229,0.57926 1.58274,1.390674 0.81158,1.686597 -1.23469,0.473795 -4.46147,-2.59148 -5.52422,-5.247725 -0.36489,-0.912016 -0.76527,-1.647518 -0.88973,-1.63445 -0.38086,0.03999 -2.17169,3.295991 -3.02282,5.495957 -1.10497,2.856092 -1.97428,6.941823 -2.5104604,11.799133 -0.37242,3.37372 -0.42587,5.64337 -0.30536,12.96458 0.0803,4.8812 0.28205,10.30366 0.4482304,12.04991 0.16618,1.74625 0.45869,4.87681 0.65002,6.956808 0.19133,2.079984 0.3923,3.824404 0.44661,3.876474 0.46301,0.4439 16.40878,1.24947 26.149879,1.32108 l 2.23863,0.0165 0.88971,-2.77813 c 1.61282,-5.036012 3.2474,-10.400602 4.19214,-13.758322 1.06156,-3.77293 1.39511,-4.40757 2.56615,-4.88254 1.11891,-0.45381 13.418867,-0.10661 14.551357,0.41076 0.96643,0.44151 1.2426,1.01442 2.41068,5.00095 2.75967,9.418508 4.62542,15.301212 4.90836,15.476072 0.38021,0.23499 5.41263,0.91347 8.73455,1.17761 4.118,0.32745 16.632583,0.12026 20.314733,-0.33633 z M 16.987996,91.387981 c -0.81876,-0.57348 -0.81454,-2.07958 0.007,-2.59547 0.79968,-0.502 3.60067,-1.06835 9.32656,-1.88578 2.61938,-0.37394 5.23875,-0.79234 5.820829,-0.92978 1.83163,-0.43247 3.96092,-0.32673 4.45691,0.22134 0.88798,0.9812 0.3631,2.51137 -0.96968,2.82692 -0.89716,0.21241 -17.195059,2.774468 -17.649709,2.774558 -0.22228,5e-5 -0.66877,-0.185258 -0.99219,-0.411788 z m 68.865086,-1.20137 c -3.63802,-0.41703 -6.88423,-0.87775 -7.21379,-1.02381 -0.32957,-0.14606 -0.73688,-0.56772 -0.90515,-0.93702 -0.25933,-0.56918 -0.21832,-0.78996 0.26923,-1.4494 l 0.57516,-0.77794 -0.59606,-0.31391 c -0.80124,-0.42195 -0.98409,-0.7431 -0.98888,-1.73683 -0.005,-0.97881 0.83621,-1.77181 2.34167,-2.2082 1.45938,-0.42303 8.36039,-0.62269 10.58323,-0.30619 1.388313,0.19767 2.130203,0.44793 2.579693,0.87021 0.80258,0.75399 0.81146,1.82617 0.0213,2.56852 -0.56577,0.53151 -0.97556,0.58548 -5.690763,0.74945 -2.7946,0.0972 -5.04349,0.2143 -4.99752,0.26027 0.046,0.046 1.26736,0.20932 2.7142,0.36302 4.07945,0.43334 8.363673,1.05724 9.310543,1.35588 0.86623,0.2732 1.65447,1.11007 1.65447,1.75655 0,0.19252 -0.29225,0.64227 -0.64944,0.99946 -0.79281,0.79282 -0.5718,0.79699 -9.007853,-0.17006 z m -67.581836,-4.37556 c -0.30161,-0.38343 -0.54837,-0.79455 -0.54837,-0.9136 0,-0.61013 0.6783,-1.56122 1.29109,-1.81031 0.82408,-0.33498 6.11972,-0.96861 10.27437,-1.22933 3.543589,-0.22238 4.309539,0.0611 4.309539,1.59487 0,1.75043 -0.0215,1.75726 -7.977879,2.52691 -6.89783,0.66726 -6.68751,0.67209 -7.34875,-0.16854 z m 15.304579,-4.16733 c -0.0606,-0.0561 -2.134309,-0.23707 -4.608159,-0.4022 -10.40889,-0.69483 -12.03929,-0.87547 -12.71763,-1.40905 -0.85287,-0.67087 -0.84472,-1.77457 0.0191,-2.58609 0.56145,-0.52746 1.00884,-0.64095 2.9226,-0.7414 4.4643,-0.23431 15.286759,1.05426 16.261229,1.93614 0.78244,0.7081 0.69778,2.07283 -0.17099,2.7562 -0.63405,0.49875 -1.42563,0.70586 -1.70615,0.4464 z m 43.153527,-1.02861 c -1.60973,-0.82287 -1.24172,-2.95189 0.61608,-3.56411 1.17193,-0.3862 7.69824,-1.26526 12.17495,-1.63991 2.545763,-0.21305 3.305633,-0.19264 4.025483,0.10814 0.95211,0.39781 1.34589,1.25936 1.07285,2.34725 -0.265,1.05582 -1.71983,1.40133 -9.030213,2.14458 -3.78354,0.38468 -7.17682,0.75353 -7.54063,0.81967 -0.3638,0.0661 -0.95713,-0.0309 -1.31852,-0.21562 z M 10.193356,252.33578 c -0.0575,-0.1819 -0.3501404,-2.05713 -0.6502704,-4.16718 -0.53172,-3.73806 -1.12757,-7.77156 -2.53537,-17.16244 -0.37884,-2.52709 -0.65298,-4.62566 -0.60922,-4.66349 0.0438,-0.0378 0.33698,-0.14777 0.65158,-0.24435 0.71292,-0.21883 0.50798,-1.21758 2.46561,12.01611 0.8718204,5.89359 1.7051804,11.43 1.8519204,12.30312 0.36766,2.18779 0.35679,2.24896 -0.39991,2.24896 -0.36837,0 -0.71682,-0.14883 -0.77434,-0.33073 z m 26.579519,-9.72343 v -10.05417 h 0.66145 0.66146 l 0.002,8.6651 c 10e-4,4.76581 0.0774,9.29019 0.16915,10.05417 l 0.16685,1.38906 h -0.83061 -0.8306 v -10.05416 z m 15.34583,8.75911 c 0,-4.58468 3.108637,-8.1669 7.966087,-9.17972 2.47065,-0.51515 3.90164,-0.29769 5.13112,0.77967 1.68195,1.47389 1.51396,3.88924 -0.42361,6.09045 -2.2198,2.52182 -5.12062,3.59952 -9.697037,3.60264 l -2.97656,0.002 z m 4.704327,-0.91978 c 0.83236,-0.34501 2.15054,-0.83486 2.9293,-1.08852 2.36821,-0.77136 4.70387,-3.51499 3.77936,-4.43949 -0.44454,-0.44456 -2.74618,-0.31978 -4.2808,0.23206 -2.46877,0.88776 -3.74616,2.41673 -4.340757,5.19568 -0.1911,0.89315 -0.0213,0.90204 1.912897,0.10027 z m 12.12121,0.2966 c 0.1391,-2.30073 0.63697,-15.54067 0.63697,-16.93915 0,-0.91959 0.0537,-0.98637 0.79375,-0.98637 0.68966,0 0.79367,0.0954 0.79315,0.72761 -10e-4,1.13601 -0.49223,12.82715 -0.67822,16.13958 l -0.16714,2.97656 h -0.74724 -0.74725 z m 15.24843,-0.18248 c -0.53281,-1.17295 -1.05209,-2.13262 -1.15394,-2.13262 -0.10186,0 -0.44367,0.41823 -0.75959,0.92937 -0.95698,1.54843 -2.27689,1.83801 -2.91794,0.64022 -0.33576,-0.62738 -0.092,-1.14949 1.49271,-3.19744 l 1.15728,-1.49553 -0.42197,-1.01801 c -0.23207,-0.55989 -0.45167,-1.05029 -0.48799,-1.08977 -0.0363,-0.0395 -0.70841,0.22723 -1.49355,0.59272 -1.90964,0.88895 -3.57993,0.90649 -3.97395,0.0417 -0.38299,-0.84058 0.0832,-1.69823 1.03272,-1.9 1.06128,-0.22548 3.23351,-1.23084 3.23351,-1.49654 0,-0.46796 -1.05234,-2.27036 -2.09765,-3.5928 -1.48918,-1.88394 -1.37484,-2.966 0.3134,-2.966 0.89538,0 1.8992,0.9939 3.27345,3.24114 0.5117,0.83675 1.01104,1.51688 1.10964,1.51143 0.0986,-0.006 0.65377,-0.41592 1.2337,-0.91212 l 1.05443,-0.90218 -0.49254,-1.27069 c -0.68699,-1.77236 -1.48402,-4.59163 -1.48402,-5.2493 0,-0.86022 0.62705,-1.51151 1.45521,-1.51151 0.86716,0 1.4527,0.65659 1.46079,1.63806 0.005,0.60656 1.1228,4.14258 1.39587,4.41563 0.0603,0.0604 0.79384,-0.25011 1.62997,-0.68995 0.83613,-0.43982 1.797293,-0.79968 2.135933,-0.79968 0.74021,0 1.44723,0.6463 1.44723,1.32292 0,0.58539 -0.67723,1.32291 -1.21478,1.32291 -0.30399,0 -2.225023,1.04743 -2.729223,1.48812 -0.13592,0.11878 0.80033,2.21605 0.98928,2.21605 0.077,0 1.00106,-0.59531 2.053583,-1.32292 1.91128,-1.32127 2.89511,-1.60435 3.49406,-1.00541 0.74756,0.74755 0.3526,1.51243 -1.4421,2.79278 -3.243613,2.31407 -3.141373,1.65812 -0.82122,5.26859 1.11435,1.73408 2.1058,3.36063 2.20325,3.61456 0.35992,0.93794 -1.24657,1.89862 -2.17023,1.29783 -0.16437,-0.10692 -1.20984,-1.59337 -2.323283,-3.30324 -1.11344,-1.70987 -2.09708,-3.10886 -2.18587,-3.10886 -0.0888,0 -0.74564,0.44551 -1.45966,0.99005 -1.50957,1.1512 -1.50985,1.178 -0.0447,4.32892 0.51447,1.10641 0.89506,2.29704 0.84576,2.64584 -0.0765,0.54131 -0.25647,0.64616 -1.22922,0.71625 l -1.13958,0.0821 z m 1.56455,-8.24143 1.27339,-0.81711 -0.53453,-1.04775 -0.53452,-1.04778 -1.04276,0.8259 c -0.57351,0.45421 -1.10251,0.92255 -1.17554,1.04074 -0.15092,0.24418 0.36279,1.86314 0.59119,1.86314 0.0822,0 0.72241,-0.36772 1.42277,-0.81714 z m 12.134413,9.82493 c 0,-0.28445 0.53912,-3.82656 1.19806,-7.87135 0.65893,-4.04476 1.493615,-9.19962 1.854865,-11.45519 0.36124,-2.25557 0.71969,-4.48381 0.79656,-4.95165 0.15831,-0.96356 0.4138,-1.20719 1.02142,-0.97404 0.5232,0.2008 0.52711,0.87448 0.0219,3.77111 -0.47186,2.70521 -3.569855,21.6848 -3.569855,21.87038 0,0.0704 -0.29765,0.12795 -0.66146,0.12795 -0.47996,0 -0.66145,-0.14189 -0.66145,-0.51721 z M 24.866626,217.99024 c -5.80159,-0.77402 -10.38605,-3.69464 -11.9581,-7.61814 -0.87032,-2.17213 -0.84943,-6.62539 0.0418,-8.90246 1.50711,-3.85083 4.31942,-6.99819 7.77173,-8.69764 2.35145,-1.15754 3.7044,-1.47409 6.33576,-1.48235 5.720619,-0.018 10.346429,3.80248 11.718219,9.67808 1.26775,5.42998 -2.19221,10.90609 -6.95659,11.01024 -1.873509,0.041 -2.900499,-0.60462 -3.683879,-2.31576 l -0.65335,-1.42709 -1.07443,0.77832 c -2.16208,1.5662 -4.52132,1.27516 -6.61217,-0.81569 -0.97399,-0.97399 -1.27383,-1.48619 -1.4129,-2.41355 -0.36648,-2.44389 0.92757,-4.83973 3.32934,-6.16402 1.24001,-0.68371 1.71011,-0.79148 3.46261,-0.79375 1.11528,-10e-4 2.09614,0.0654 2.17968,0.14859 0.0835,0.0832 5.3e-4,0.67425 -0.18463,1.31352 l -0.33651,1.16231 -1.23277,-0.0758 c -1.91962,-0.11804 -3.53958,0.71686 -4.17408,2.15127 -0.36304,0.8207 -0.44981,1.37444 -0.30223,1.92854 0.23513,0.8828 1.65875,1.96791 2.58183,1.96791 1.35334,0 3.75824,-3.13029 4.46593,-5.813 0.50399,-1.91056 1.04714,-2.65367 1.93962,-2.65367 1.48559,0 1.750889,1.14764 0.80816,3.49594 -0.79005,1.96798 -0.85659,5.72162 -0.11595,6.54029 0.40111,0.44337 0.68831,0.52867 1.315899,0.39083 1.45991,-0.32065 2.75711,-1.3618 3.48404,-2.79631 0.6114,-1.20655 0.6798,-1.61023 0.59393,-3.50498 -0.11857,-2.61598 -0.93541,-4.55898 -2.71761,-6.4643 -3.814049,-4.07752 -10.664969,-3.60686 -15.094449,1.03699 -3.35502,3.51739 -4.41953,8.51069 -2.62366,12.30684 1.53652,3.24795 6.13612,5.45289 11.48604,5.50614 3.12894,0.0312 5.125969,-0.53075 6.503399,-1.82983 0.53842,-0.5078 1.08728,-0.92327 1.21967,-0.92327 0.21942,0 1.79294,0.73567 2.03727,0.95249 0.23825,0.21143 -1.42073,2.03164 -2.43924,2.67628 -2.28751,1.44782 -6.207619,2.11329 -9.702349,1.64704 z"
       id="path836" />
  </g>
</svg>
