<?xml version="1.0" encoding="UTF-8" standalone="no"?>
<!-- Created with Inkscape (http://www.inkscape.org/) -->

<svg
   width="89.228996mm"
   height="269.86096mm"
   viewBox="0 0 89.228996 269.86096"
   version="1.1"
   id="svg5"
   sodipodi:docname="フルショット.svg"
   inkscape:version="1.1 (c68e22c387, 2021-05-23)"
   xmlns:inkscape="http://www.inkscape.org/namespaces/inkscape"
   xmlns:sodipodi="http://sodipodi.sourceforge.net/DTD/sodipodi-0.dtd"
   xmlns="http://www.w3.org/2000/svg"
   xmlns:svg="http://www.w3.org/2000/svg">
  <sodipodi:namedview
     id="namedview7"
     pagecolor="#ffffff"
     bordercolor="#666666"
     borderopacity="1.0"
     inkscape:pageshadow="2"
     inkscape:pageopacity="0.0"
     inkscape:pagecheckerboard="0"
     inkscape:document-units="mm"
     showgrid="false"
     inkscape:zoom="0.85592688"
     inkscape:cx="168.23867"
     inkscape:cy="509.97347"
     inkscape:window-width="1432"
     inkscape:window-height="1081"
     inkscape:window-x="464"
     inkscape:window-y="133"
     inkscape:window-maximized="0"
     inkscape:current-layer="svg5" />
  <defs
     id="defs2" />
  <g
     id="layer1">
    <path
       style="fill:#ffffff;fill-opacity:1;stroke:#000000;stroke-width:0.264583px;stroke-linecap:butt;stroke-linejoin:miter;stroke-opacity:1"
       d="m 32.785575,222.96919 c -3.187448,0 -5.653209,1.26295 -6.435037,2.46576 -0.781827,1.20281 -1.323091,17.56103 -1.323091,18.94426 0,1.38323 -0.661545,21.5303 -0.841967,22.19187 -0.180422,0.66153 -3.608433,2.58603 -5.833632,2.46575 -2.225198,-0.12027 -6.615456,-0.78184 -7.517566,-2.70634 C 9.9321742,264.40602 4.1412342,204.61215 3.9711312,199.50906 3.8010272,194.40597 -0.53227585,145.86903 0.55025315,138.05076 1.6327832,130.2325 2.2792152,108.95725 12.300169,101.85342 8.2482422,98.959418 4.0384042,96.433518 3.1964362,93.667057 c -0.841968,-2.766465 -0.902108,-6.525247 1.413303,-10.07354 2.315409,-3.54829 3.397938,-8.449744 3.277659,-11.035786 -0.120282,-2.586043 -2.525903,-32.896865 -1.623796,-35.903892 0.90211,-3.007027 1.366825,-6.898545 3.570158,-9.433256 C 10.112596,24.024329 10.53358,14.702547 11.074846,12.056364 11.61611,9.4101814 13.480467,2.0128965 14.98398,0.68980489 c 1.804215,2.52590221 2.886745,6.13433351 4.330118,7.69798751 1.443371,1.563653 6.194473,7.8182676 6.675596,9.0210776 2.04478,-0.420983 9.442064,-0.841967 11.005717,-0.841967 1.563653,0 10.224429,0.612905 11.202522,1.208266 1.254511,-0.786727 7.314432,-6.99549 7.994845,-8.1862106 0.680414,-1.190722 5.315723,-7.6546395 5.868557,-8.2925261 1.148196,1.5734538 1.913659,12.1623707 1.913659,14.2461337 0,2.083763 -0.978093,11.673324 -1.871133,12.651417 0.574098,1.254511 1.743557,6.655284 1.828607,8.61147 0.08505,1.956184 -0.68041,20.412371 -1.10567,22.283505 -0.425257,1.871133 -1.19072,14.969071 -1.020617,16.840205 0.170103,1.871133 0.850514,7.654639 1.871133,9.525772 1.02062,1.871136 2.041241,6.804126 0.170104,9.865983 -1.871134,3.06185 -6.421393,5.507092 -7.101803,5.868552 1.211982,0.74421 7.101803,14.96908 8.122422,20.41238 1.020618,5.44329 1.956188,13.09793 1.701028,17.60566 -0.25515,4.50774 -6.479691,74.16926 -6.930747,76.1539 2.586042,1.23288 15.861157,16.55229 19.178167,21.57033 3.31701,5.01804 9.95104,18.11598 10.03609,21.68814 -4.50774,-1.78608 -22.02835,-13.77835 -24.750004,-16.41494 -2.721649,-2.6366 -5.011642,-7.1559 -5.992934,-10.21197 -0.981292,4.17331 -4.808611,34.0264 -5.148818,35.47227 -2.041237,1.53093 -4.677833,2.46649 -5.953606,2.21136 -1.275774,-0.25517 -5.018043,-0.51033 -6.208763,-2.38146 -0.08505,-3.31701 -0.489048,-39.88917 -1.041882,-40.90979 -0.552836,-1.02062 -2.232604,-2.93428 -3.635954,-3.14691 -1.40335,-0.21263 -3.335039,-0.26925 -3.335039,-0.26925 z"
       id="path1009" />
    <path
       style="fill:#000000;stroke-width:0.264583"
       d="m 43.869778,269.63333 c -1.20918,-0.36783 -2.3083,-1.04696 -2.97313,-1.83708 C 40.15165,266.9109 40.23843,268.791 39.60681,239.85032 l -0.29449,-13.49375 -0.64616,-0.86234 c -1.19499,-1.59479 -2.47311,-2.04808 -5.77488,-2.04808 -2.57939,0 -3.0571,0.0749 -4.20015,0.65868 -0.70936,0.36227 -1.6154,1.05375 -2.01342,1.53663 -0.7153,0.86778 -0.72538,0.93374 -0.86966,5.69132 -0.0803,2.64735 -0.33918,11.24275 -0.57532,19.10087 -0.23613,7.85813 -0.49533,14.81513 -0.57599,15.45998 -0.30819,2.46401 -2.83062,3.62391 -7.37635,3.3919 -4.64263,-0.23693 -7.06335,-1.82941 -7.4052098,-4.87153 -0.0955,-0.84971 -0.33889,-2.91415 -0.5409,-4.58764 -0.202,-1.67349 -0.49411,-4.29286 -0.64913,-5.82083 -0.15501,-1.52797 -0.51158,-4.80219 -0.79237,-7.27605 -1.49228,-13.14755 -3.47476,-33.35526 -5.02268,-51.19687 C 0.56516015,168.96535 -0.45602985,146.22146 0.19123015,135.86907 1.1269002,120.90365 4.5327702,109.69213 10.23674,102.801 c 0.60005,-0.72494 1.0876,-1.37978 1.08344,-1.45521 -0.004,-0.0754 -0.91127,-0.67292 -2.0157998,-1.32776 -2.84116,-1.684462 -5.46902,-4.322742 -6.52404,-6.549939 -0.7122,-1.50347 -0.84363,-2.08332 -0.83466,-3.68256 0.0103,-1.83875 0.0783,-2.03318 2.17362,-6.2177 1.18964,-2.37578 2.36015,-5.033977 2.60112,-5.907102 0.84474,-3.060682 0.74611,-14.604431 -0.12726,-14.895555 -0.15698,-0.05233 -0.53472,-0.297008 -0.83941,-0.543735 -1.2108,-0.980442 -3.12173,-10.366314 -2.73987,-13.457354 l 0.17048,-1.379979 1.12566,0.154289 1.12565,0.154289 0.14779,-5.653479 c 0.20009,-7.653766 1.11236,-11.620818 3.41644,-14.856603 0.4873,-0.684355 0.58083,-1.122937 0.5183,-2.430537 -0.042,-0.877527 -0.22863,-1.833628 -0.41483,-2.12467 -0.1862,-0.291042 -0.41124,-1.321964 -0.50008,-2.29094 -0.14814,-1.615652 -0.11318,-1.794085 0.42156,-2.151338 0.56396,-0.376775 0.56747,-0.406954 0.10697,-0.919382 -0.42879,-0.477126 -0.4455,-0.705719 -0.16813,-2.298505 0.24589,-1.412017 0.4234,-1.81256 0.88023,-1.98625 0.4435998,-0.168654 0.6486998,-0.595818 0.9123598,-1.900157 0.48963,-2.4222116 2.58989,-8.6122147 3.37897,-9.9586787 1.06857,-1.82337501 1.57044,-1.53155001 2.86572,1.666357 1.51174,3.7322801 2.59037,5.6092191 4.66945,8.1253447 0.99462,1.203702 2.28559,2.902924 2.8688,3.776049 0.58322,0.873125 1.21274,1.79929 1.39894,2.058145 0.32294,0.448956 0.47266,0.450027 3.24896,0.02324 4.0827,-0.62761 12.783958,-0.623698 16.443098,0.0074 l 2.68477,0.463041 3.32098,-3.395063 c 3.82574,-3.9110866 5.07149,-5.4407176 7.72537,-9.4858326 1.05391,-1.6064091 2.08173,-3.0581141 2.28403,-3.2260111 1.35637,-1.12568501 2.25884,3.3279411 2.50549,12.3644607 0.17276,6.329111 -0.20225,10.444808 -1.22955,13.494308 l -0.57164,1.696887 0.6683,2.12784 c 0.36757,1.170313 0.79388,3.059189 0.94737,4.197506 0.59098,4.382886 0.21789,14.168758 -0.92982,24.388668 -0.13382,1.191611 -0.11006,1.275498 0.23937,0.845174 0.67889,-0.836073 2.504947,-6.826824 2.979487,-9.774862 l 0.45784,-2.844271 h 1.67964 1.67964 l -0.15254,1.124479 c -0.57312,4.224859 -2.58159,11.199564 -3.90477,13.559896 -0.47834,0.853279 -0.79698,1.101778 -1.644557,1.282557 -0.57819,0.123325 -1.22985,0.314444 -1.44814,0.42471 -0.53955,0.272563 -0.79567,2.946857 -0.86273,9.008358 -0.0674,6.092026 0.20096,7.460056 2.85448,14.552076 0.24501,0.65485 0.453637,1.905 0.463617,2.77813 0.0445,3.893367 -2.004847,6.822337 -7.504287,10.725369 l -0.57292,0.40661 0.94307,1.47426 c 3.6481,5.7029 6.8169,14.80919 7.996627,22.98022 0.94658,6.55619 0.77507,17.25216 -0.54943,34.26354 -1.091687,14.02127 -2.853107,31.86641 -4.491937,45.50834 -0.20978,1.74625 -0.5155,4.49613 -0.67938,6.11085 l -0.29795,2.93586 4.20184,4.2079 c 12.534497,12.55253 21.433307,26.47714 24.435677,38.23625 0.30729,1.20353 0.45146,2.26329 0.32509,2.38966 -0.24999,0.25 -4.55681,-2.31376 -10.91593,-6.49802 -7.22692,-4.75525 -11.66473,-8.11219 -15.036857,-11.37447 -2.20558,-2.13372 -3.21892,-3.49478 -4.44371,-5.9685 -0.51334,-1.03681 -0.90622,-1.57021 -0.98127,-1.33224 -0.0688,0.21828 -0.7383,5.33797 -1.48771,11.37708 -2.37158,19.11165 -2.63588,20.94984 -3.13511,21.80463 -0.26383,0.45175 -1.08042,1.12014 -1.87663,1.5361 -1.28411,0.67082 -1.64823,0.73435 -4.09132,0.7136 -1.47498,-0.0124 -2.98019,-0.1135 -3.34494,-0.22444 z m 6.74859,-1.04662 c 2.21852,-1.02393 2.08068,-0.53771 3.68722,-13.00591 0.79602,-6.17791 2.40239,-19.15022 3.5697,-28.82736 1.16731,-9.67713 2.18801,-18.13057 2.26824,-18.78541 0.78789,-6.43129 2.80598,-25.52462 3.56202,-33.70064 2.397017,-25.92225 2.896397,-40.93293 1.625837,-48.87088 -1.314157,-8.21043 -4.256577,-16.49686 -7.855657,-22.12313 l -0.89643,-1.40135 -1.48547,0.72664 c -0.9892,0.48389 -1.32197,0.75392 -0.99609,0.80829 1.01849,0.1699 1.11615,0.27382 0.92588,0.98527 -0.16342,0.61103 -0.34139,0.71072 -1.38626,0.77649 -0.65933,0.0415 -1.55774,0.26108 -1.99648,0.48796 -0.85238,0.44078 -2.7423,2.3903 -2.7423,2.82877 0,0.14606 0.70861,0.26382 1.5875,0.26382 h 1.5875 v 0.79375 0.79376 h -1.98438 c -1.94028,0 -1.98437,0.0147 -1.98437,0.66145 0,0.64256 0.0529,0.66146 1.85208,0.66146 h 1.85208 v 0.79375 c 0,0.77003 -0.0376,0.79386 -1.25677,0.79736 -1.50716,0.004 -2.44739,0.22815 -2.44739,0.58258 0,0.14293 0.1972,0.67545 0.43822,1.18337 0.59152,1.24654 2.12906,2.21512 3.84966,2.42512 1.28164,0.15642 1.40777,0.23278 1.48438,0.89855 0.0799,0.69446 0.0316,0.72761 -1.06008,0.72761 -3.15651,0 -5.67767,-2.00533 -6.40336,-5.09323 -0.12826,-0.54578 -0.33072,-0.72761 -0.81018,-0.72761 -0.35156,0 -0.94357,-0.11572 -1.31559,-0.25716 -0.61475,-0.23373 -0.648,-0.31947 -0.36482,-0.94097 0.27979,-0.61408 0.41446,-0.66643 1.32062,-0.51334 0.55499,0.0938 1.01069,0.0707 1.01267,-0.0512 0.002,-0.12193 0.0754,-0.48958 0.16316,-0.81701 0.13238,-0.49398 0.0529,-0.596 -0.46664,-0.59936 -1.0554,-0.007 -1.43388,-0.39055 -1.10252,-1.11781 0.23936,-0.52532 0.4405,-0.61271 1.20492,-0.52346 0.82427,0.0962 0.98062,0.005 1.53724,-0.89548 0.3408,-0.55143 0.9532,-1.3825 1.36088,-1.84683 l 0.74124,-0.84422 -2.84542,0.7636 c -8.635758,2.31749 -17.733538,2.00103 -27.171238,-0.94516 -1.67336,-0.52237 -4.01792,-1.36728 -5.21014,-1.87757 l -2.16766,-0.9278 -0.75428,0.72264 c -1.16239,1.11364 -3.2837198,4.31236 -4.5682498,6.8884 -2.76423,5.54347 -4.63148,12.74158 -5.57984,21.50983 -1.56515005,14.47094 0.0383,44.01302 5.18406,95.51458 1.02911,10.29977 3.6171898,34.12641 4.1384698,38.1 0.12,0.91472 0.38421,1.41028 1.14012,2.13849 1.33557,1.28667 2.91818,1.69964 6.47875,1.69056 3.08118,-0.008 3.95013,-0.25778 5.02477,-1.44526 0.5863,-0.64783 0.45724,1.88823 1.31966,-25.93171 0.23684,-7.63984 0.48683,-14.16152 0.55554,-14.4926 0.2046,-0.98593 1.87125,-2.59975 3.35485,-3.2485 1.88125,-0.82264 5.35253,-1.01046 7.44306,-0.40273 1.65827,0.48207 3.36646,1.82421 3.81732,2.99929 0.16483,0.42958 0.39366,5.95096 0.561858,13.55704 0.65815,29.76034 0.54285,27.20914 1.26872,28.07179 0.8692,1.03299 2.61698,1.52207 5.4938,1.53731 1.77713,0.01 2.64976,-0.11131 3.43959,-0.47583 z M 10.4512,249.82386 c -0.8217798,-0.85776 -0.8931998,-1.5197 -0.26327,-2.44019 0.87669,-1.28108 1.09893,-1.30309 2.32123,-0.2299 1.1358,0.99724 1.16949,1.51795 0.16764,2.59044 -0.94619,1.01289 -1.31872,1.02623 -2.2256,0.0797 z m 2.91552,-3.85974 -0.73915,-0.59584 1.34908,-1.26191 1.34909,-1.26191 1.63902,0.21583 c 0.90146,0.11871 2.23434,0.21894 2.96194,0.22272 1.28301,0.007 1.33855,-0.025 1.84115,-1.05144 0.66308,-1.35413 0.68865,-3.50073 0.0532,-4.47046 -1.00367,-1.53181 -3.42135,-2.20985 -5.31391,-1.4903 -0.59811,0.2274 -0.7221,0.16748 -1.07815,-0.52103 -0.39486,-0.76358 -0.38685,-0.78599 0.43301,-1.20995 0.61176,-0.31635 1.34463,-0.40623 2.73843,-0.33585 2.25411,0.11383 3.66086,0.88649 4.82969,2.65271 0.61097,0.92324 0.72983,1.3862 0.72964,2.84201 -2.7e-4,2.12422 -0.6689,3.98944 -1.75888,4.90659 -0.90331,0.76009 -2.23712,0.86604 -4.84158,0.38458 l -1.53849,-0.28441 -0.9575,0.92726 -0.95749,0.92724 z m 38.417558,-2.18504 -0.59704,-0.96603 0.72251,-0.62147 c 0.95415,-0.82073 1.38919,-0.78384 1.87682,0.15914 0.52227,1.00995 0.51549,2.03029 -0.0148,2.23379 -0.8896,0.34137 -1.4087,0.131 -1.98745,-0.80543 z m -3.54716,-6.04138 c -1.30969,-1.81378 -2.76761,-4.02415 -3.23982,-4.91193 -1.02779,-1.93229 -0.89281,-2.41445 0.89764,-3.20645 1.05999,-0.46888 1.24663,-0.48319 1.77632,-0.13612 0.32554,0.2133 0.78924,0.84722 1.03044,1.40872 1.11513,2.59593 3.37188,8.57109 3.37188,8.92769 0,0.35102 -0.94452,1.22586 -1.31565,1.2186 -0.0768,-0.002 -1.21112,-1.48673 -2.52081,-3.30051 z M 9.6362602,220.24951 c -0.31833,-0.82955 -0.14062,-1.13042 1.0956998,-1.85495 1.69104,-0.99101 5.01859,-4.39949 6.11954,-6.26836 1.14722,-1.94743 2.13354,-4.67212 2.3644,-6.5316 0.16719,-1.34669 0.23949,-1.46969 0.90924,-1.54675 0.68243,-0.0785 0.7276,-0.0204 0.7276,0.9366 0,1.64955 -0.71198,4.0012 -2.01616,6.65929 -0.95643,1.94933 -1.67838,2.96328 -3.34877,4.7032 -1.86441,1.94201 -4.88421,4.32109 -5.48483,4.32109 -0.1133698,0 -0.2783898,-0.18833 -0.3667198,-0.41852 z M 22.29915,219.05279 c -0.13702,-0.43169 0.0374,-0.73346 0.77592,-1.34218 0.78511,-0.64716 0.95267,-0.95992 0.95267,-1.77823 0,-1.9008 -2.00844,-2.79688 -3.55035,-1.58401 -0.94306,0.74181 -0.89307,2.30126 0.0894,2.78841 1.31581,0.65244 1.34297,1.67916 0.0444,1.67916 -1.72219,0 -2.8315,-2.28166 -2.11305,-4.34619 0.65989,-1.89626 3.37343,-2.8497 5.28987,-1.85867 2.26946,1.17359 2.44052,4.90236 0.29498,6.43011 -1.00792,0.71771 -1.55859,0.72129 -1.78383,0.0116 z m 28.183828,-4.32324 c -2.26974,-1.18299 -3.16692,-2.59593 -3.17043,-4.99298 -0.002,-1.27287 0.39682,-2.03313 1.06617,-2.03313 0.56697,0 0.57933,0.046 0.53409,1.98438 -0.0207,0.88772 0.1362,1.59188 0.477,2.14051 0.50664,0.81561 2.57364,2.05982 2.99221,1.80113 0.3304,-0.20419 0.24913,-2.66983 -0.14735,-4.47081 -0.19222,-0.87312 -0.78975,-3.17019 -1.32785,-5.10459 -0.55606,-1.99897 -0.90505,-3.74805 -0.80853,-4.05217 0.16572,-0.52214 0.14209,-0.52065 -0.97797,0.0615 -0.87057,0.45245 -1.5951,0.59674 -2.99987,0.59742 -2.3118,0.001 -3.98484,-0.69449 -5.05578,-2.10205 l -0.765048,-1.00552 0.0262,-5.30977 c 0.0144,-2.92038 0.163268,-9.5365 0.330768,-14.70249 0.88951,-27.43445 1.12561,-34.02824 1.22908,-34.32522 0.0625,-0.17945 0.26701,-0.26772 0.45442,-0.19616 0.23696,0.0905 0.32268,0.63309 0.28144,1.78148 -0.0326,0.90825 -0.24149,7.42589 -0.46416,14.48365 -0.22267,7.05776 -0.52341,16.28511 -0.6683,20.50521 -0.1449,4.22011 -0.29322,9.83525 -0.32959,12.47811 -0.0622,4.5179 -0.033,4.85009 0.4879,5.55625 0.96328,1.30582 2.39204,1.93242 4.41744,1.93733 2.04206,0.005 3.42116,-0.55025 4.47358,-1.80098 1.17259,-1.39354 0.57424,1.80652 6.93478,-37.08842 0.93999,-5.74807 2.09406,-12.87343 2.5646,-15.83414 0.58777,-3.69832 0.96946,-5.42682 1.21956,-5.52279 0.20022,-0.0768 0.40629,-0.0952 0.45794,-0.0409 0.11926,0.1255 -1.04034,7.32399 -8.62547,53.54467 -0.31214,1.90204 -0.78862,3.83904 -1.06592,4.33321 l -0.50147,0.89362 0.60629,-0.16241 c 0.33346,-0.0893 0.92068,-0.16403 1.30492,-0.16602 l 0.69863,-0.004 -0.38809,-1.3239 c -0.55985,-1.90983 -0.14327,-3.06013 1.34695,-3.71932 1.74156,-0.77038 3.20765,-0.92022 3.98973,-0.40779 1.17942,0.77279 0.535,2.28827 -0.65659,1.54411 -0.57911,-0.36166 -2.65059,0.055 -3.07936,0.61943 -0.4549,0.59878 -0.0413,1.99284 1.60992,5.42683 1.69462,3.52419 1.98902,4.96989 1.28465,6.3085 -0.72613,1.37997 -1.70658,1.97266 -3.26325,1.97266 -1.10697,0 -1.30235,0.0698 -1.15338,0.41214 0.0986,0.22667 0.2355,1.50504 0.30411,2.84082 0.1199,2.3344 0.0983,2.45508 -0.55543,3.10885 -0.83354,0.83354 -1.5387,0.84116 -3.08857,0.0334 z m 5.91999,-8.48288 c 0.91405,-0.91404 0.78584,-2.06171 -0.52191,-4.67189 -0.48482,-0.96767 -0.72901,-1.20489 -1.13185,-1.09954 -0.3414,0.0893 -0.61311,-0.0515 -0.8102,-0.41978 -0.3492,-0.65247 -0.9967,-0.70947 -1.78522,-0.15717 -0.49717,0.34823 -0.53629,0.51865 -0.31885,1.38906 1.16292,4.65516 1.57944,5.35776 3.17628,5.35776 0.54632,0 1.17261,-0.1793 1.39175,-0.39844 z m -43.487728,6.74844 c 0,-0.50694 0.13491,-0.79375 0.37336,-0.79375 0.20534,0 0.68159,-0.36632 1.05833,-0.81405 0.55432,-0.65877 0.68498,-1.09027 0.68498,-2.2621 0,-3.06351 -1.60531,-4.17128 -3.55898,-2.45593 -1.6468698,1.44597 -1.7985898,4.24791 -0.25104,4.63632 0.48715,0.12226 0.63502,0.33753 0.63502,0.92444 0,0.9327 -0.53605,1.00086 -1.80186,0.22912 -0.9383598,-0.5721 -1.6393398,-1.89831 -1.6351398,-3.09357 0.004,-1.05667 1.12946,-3.32568 1.9831798,-3.99722 1.65026,-1.29809 3.87088,-1.28606 5.10145,0.0276 1.85002,1.97499 1.395,6.5263 -0.78536,7.85563 -1.28139,0.78123 -1.80394,0.70692 -1.80394,-0.25654 z m 3.43958,-13.27546 c -1.95084,-0.55436 -3.51088,-2.32589 -3.80365,-4.31933 -1.32692,-9.03497 -8.2829098,-54.41354 -8.5313298,-55.65565 -0.10919,-0.54598 -0.0345,-0.80159 0.26829,-0.91777 0.55658,-0.21358 0.20037,-2.21744 3.73072,20.98696 1.09592,7.20328 2.1189498,13.87078 2.2733998,14.81667 0.39537,2.42143 1.42934,9.23469 2.36901,15.61041 0.43967,2.98318 0.87201,5.65978 0.96076,5.94801 1.00301,3.2573 6.75545,4.0182 8.87524,1.17397 0.60032,-0.80547 0.61102,-2.1411 0.20666,-25.7751 -0.37037,-21.64734 -0.34643,-28.70729 0.0973,-28.70729 0.29845,0 0.39508,2.62446 0.55768,15.14739 0.10817,8.33107 0.27949,20.26708 0.38071,26.52448 0.10835,6.6981 0.0843,11.75666 -0.0584,12.30003 -0.63416,2.41465 -4.11933,3.77857 -7.32646,2.86722 z m 22.19491,-32.99057 c -0.63829,-0.40575 -1.78232,-1.41928 -2.54228,-2.25229 l -1.38176,-1.51458 -0.78408,0.5797 c -1.6338,1.20792 -5.43647,0.78316 -6.63551,-0.74118 -1.22632,-1.559 -0.41215,-3.69161 2.36864,-6.20437 1.73369,-1.56659 1.85637,-1.75037 1.85877,-2.78455 0.003,-1.41122 0.38065,-2.40149 1.27617,-3.34874 1.49847,-1.58505 4.46559,-2.44428 5.87015,-1.69991 2.452538,1.29979 0.74195,4.87939 -2.82761,5.91709 -0.76264,0.22171 -1.64955,0.61602 -1.97093,0.87625 -0.54944,0.44491 -0.56417,0.5451 -0.24674,1.67886 0.18567,0.66314 0.56029,1.57192 0.83249,2.01951 l 0.49491,0.81382 0.93513,-0.55174 c 1.65509,-0.97653 2.47084,0.1747 0.93066,1.31341 -0.43656,0.32276 -0.79375,0.68558 -0.79375,0.80627 0,0.40099 1.70438,2.36264 2.77813,3.19748 2.267338,1.76285 2.357088,1.90541 1.49126,2.36879 -0.38132,0.20407 -0.75622,0.0966 -1.65365,-0.47382 z m -5.6082,-4.5214 0.84399,-0.51462 -1.10101,-2.38354 -1.10102,-2.38354 -0.80131,0.61194 c -1.24325,0.94943 -2.5211,2.76133 -2.5211,3.57472 0,1.43719 2.97701,2.1337 4.68045,1.09504 z m 1.64508,-8.75871 c 2.2482,-0.85449 2.89686,-1.26077 3.32031,-2.07964 0.53566,-1.03585 0.0353,-1.48288 -1.36557,-1.22007 -1.45483,0.27293 -2.41821,0.85305 -2.99932,1.80609 -0.4208,0.69013 -0.72002,2.03808 -0.45231,2.03754 0.0364,-7e-5 0.70998,-0.24484 1.49689,-0.54392 z m 16.154678,1.00708 c -0.29192,-0.47295 -0.60542,-1.14646 -0.69667,-1.4967 l -0.16591,-0.63681 -0.71668,0.87812 c -0.48596,0.59542 -0.85668,0.8244 -1.15153,0.71125 -0.67386,-0.25858 -0.51541,-1.28807 0.36211,-2.35266 0.70113,-0.85058 0.76032,-1.04725 0.49229,-1.63551 -0.29298,-0.64304 -0.33431,-0.65333 -1.07838,-0.26856 -1.01027,0.52243 -2.42586,0.39317 -2.54437,-0.23233 -0.0659,-0.34776 0.25868,-0.61357 1.2546,-1.02746 0.73892,-0.30708 1.34349,-0.71193 1.34349,-0.89967 0,-0.18773 -0.42353,-0.89618 -0.94118,-1.57434 -0.98869,-1.29526 -1.09121,-2.04737 -0.29984,-2.19977 0.61238,-0.11793 1.16297,0.3495 2.04617,1.73712 l 0.71477,1.12299 0.66542,-0.52342 0.66543,-0.52342 -0.66952,-2.13974 c -0.62412,-1.99466 -0.6397,-2.16955 -0.22979,-2.57946 0.66505,-0.66506 1.24103,-0.13226 1.67029,1.54505 0.20285,0.79266 0.461,1.53338 0.57366,1.64604 0.11267,0.11266 0.58331,0.016 1.04588,-0.21473 1.08298,-0.54026 2.03476,-0.418 2.03476,0.26136 0,0.32874 -0.37805,0.70761 -1.05834,1.06063 -0.58208,0.30206 -1.04643,0.69699 -1.03187,0.87764 0.0781,0.96921 0.12752,1.12219 0.36268,1.12219 0.14126,0 0.78676,-0.37352 1.43442,-0.83003 1.24585,-0.87816 2.0129,-0.87695 2.0129,0.003 0,0.31264 -0.52045,0.88656 -1.33392,1.47098 -0.73366,0.52708 -1.28082,1.04427 -1.21592,1.1493 2.72527,4.41066 2.86506,4.82119 1.64167,4.82119 -0.44239,0 -0.89697,-0.48935 -1.84544,-1.9866 -1.29608,-2.046 -1.38082,-2.08461 -2.45515,-1.11867 l -0.57854,0.52018 0.64469,1.45776 c 0.75069,1.69744 0.80683,2.33142 0.22617,2.55423 -0.60792,0.23328 -0.59973,0.23814 -1.17835,-0.69929 z m 0.58385,-5.66341 c 0.53889,-0.48768 0.59454,-0.82948 0.22915,-1.40727 -0.20861,-0.32987 -0.34607,-0.29648 -0.89242,0.21679 -0.40932,0.38453 -0.59691,0.79378 -0.51224,1.11754 0.16377,0.62629 0.53838,0.64953 1.17551,0.0729 z M 12.69163,133.36602 c -2.06375,-0.70273 -3.4967898,-1.84804 -4.3623898,-3.48651 -0.6797,-1.28657 -0.74011,-1.61601 -0.64828,-3.53544 0.16951,-3.54303 1.95565,-6.27602 5.1196798,-7.83366 4.23398,-2.08438 8.54155,-0.4235 10.16665,3.91999 1.29422,3.45909 -0.081,6.92148 -3.08291,7.76197 -1.06796,0.29901 -1.25052,0.28021 -1.89274,-0.19498 -0.39092,-0.28925 -0.86317,-0.83651 -1.04942,-1.21613 l -0.33865,-0.69021 -0.92691,0.54689 c -2.27277,1.34096 -5.19528,-1.05229 -4.36332,-3.57315 0.56165,-1.70181 2.26665,-2.82176 4.29582,-2.82176 0.98255,0 1.05866,0.0496 0.91243,0.59531 -0.0877,0.32742 -0.16117,0.68461 -0.16315,0.79375 -0.002,0.10914 -0.46381,0.19844 -1.02627,0.19844 -1.42504,0 -2.41693,0.81974 -2.41693,1.99747 0,1.03332 0.94441,1.86249 1.80884,1.58813 0.67277,-0.21353 1.78345,-1.84006 2.30828,-3.38036 0.47863,-1.4047 0.91957,-1.87398 1.53789,-1.63671 0.53362,0.20477 0.53374,0.34986 0.002,2.54125 -0.45143,1.86052 -0.34087,3.50397 0.251,3.73109 0.60705,0.23295 2.00745,-0.55913 2.56802,-1.45248 0.42731,-0.68097 0.52737,-1.19735 0.45151,-2.33006 -0.36498,-5.4501 -5.83713,-7.50945 -10.19979,-3.83851 -1.29936,1.09327 -2.4320298,3.63207 -2.4320298,5.45104 0,2.54925 0.72276,3.75308 2.9270898,4.87534 2.75543,1.40283 6.48489,1.38472 8.17774,-0.0397 0.64001,-0.53853 0.87805,-0.60493 1.32027,-0.36826 0.29672,0.1588 0.53949,0.38132 0.53949,0.4945 0,0.39631 -1.46429,1.60341 -2.4389,2.01053 -1.38148,0.57708 -5.2057,0.51859 -7.04513,-0.10776 z m 74.862575,122.18069 c -2.84974,-9.25784 -8.3368,-18.50851 -17.241,-29.06674 -2.66941,-3.16528 -9.981187,-10.72452 -10.176167,-10.52057 -0.0412,0.0431 -0.51427,3.66833 -1.05118,8.05599 l -0.97622,7.97758 0.9131,2.23967 c 1.59769,3.9188 3.3867,6.07628 8.399957,10.13 5.09087,4.11648 20.62588,14.48384 20.83803,13.90636 0.0393,-0.10708 -0.2786,-1.33211 -0.70652,-2.72229 z M 40.927118,105.95509 c 5.2487,-0.77075 9.40386,-2.03573 13.92458,-4.23917 5.23275,-2.550482 8.52302,-5.752662 9.55364,-9.297889 0.53664,-1.84596 0.35146,-3.11928 -0.95331,-6.55522 -1.76514,-4.64824 -2.20706,-7.228982 -2.17474,-12.699999 0.0155,-2.619375 0.13751,-5.655469 0.2712,-6.746875 0.1337,-1.091406 0.2055,-2.052849 0.15957,-2.136537 -0.0459,-0.08369 -0.95256,-0.04248 -2.01473,0.09157 -1.06217,0.134054 -4.49106,0.174665 -7.61975,0.09025 -7.82369,-0.21109 -11.05669,-0.872295 -11.62931,-2.378385 C 40.31806,61.75086 39.66127,59.524142 38.98474,57.134571 38.30821,54.745 37.63345,52.402945 37.48528,51.930003 l -0.26941,-0.859896 h -2.33496 -2.33496 l -0.56781,1.918229 c -1.84059,6.217978 -3.3463,10.341917 -3.91164,10.713455 -0.51257,0.336857 -1.67698,0.349761 -8.73125,0.09675 -4.47689,-0.16057 -8.84684,-0.408657 -9.7110098,-0.551307 -0.86416,-0.142648 -1.62067,-0.209897 -1.68113,-0.149439 -0.0605,0.06045 0.0404,2.018921 0.22402,4.352147 0.26674,3.388439 0.26796,4.789593 0.006,6.961926 -0.41849,3.471441 -0.95477,5.039222 -3.28341,9.598863 -1.7395,3.40605 -1.89951,3.85704 -1.98821,5.60366 -0.0815,1.60519 0.009,2.12915 0.58211,3.3817 2.33058,5.090667 10.9936798,9.945079 21.7848998,12.207299 5.84679,1.22569 10.8086,1.46389 15.658508,0.7517 z M 29.50754,102.26306 c -3.57185,-0.43207 -5.4798,-1.11933 -5.4798,-1.97388 0,-0.733892 0.60651,-0.932522 1.36769,-0.447912 2.25485,1.435582 11.76723,1.901612 15.464998,0.757652 1.03605,-0.32051 2.19576,-0.828202 2.57713,-1.128182 1.26065,-0.99163 1.73184,0.10532 0.52548,1.223332 -1.77395,1.64404 -8.130998,2.33403 -14.455498,1.56899 z M 7.8881602,91.968201 c -0.8866,-0.3223 -0.92604,-0.39188 -0.92604,-1.63352 v -1.29687 h -1.45521 -1.45521 v -1.58386 -1.58385 l 1.43803,-0.20696 c 0.79092,-0.11382 1.46352,-0.23452 1.49467,-0.26822 0.0311,-0.0337 -0.0477,-0.71458 -0.17523,-1.51306 -0.27156,-1.7003 -0.0513,-2.05581 1.42181,-2.29486 0.86617,-0.14056 0.99604,-0.0841 1.23845,0.53804 0.14895,0.38228 0.38575,0.98962 0.52622,1.34962 l 0.2554098,0.65456 1.66282,-0.78664 c 0.91455,-0.43265 1.7929,-0.78674 1.95188,-0.78685 0.15899,-1.1e-4 0.50844,0.40713 0.77655,0.905 l 0.48749,0.9052 -1.0193,1.24392 c -0.70042,0.85477 -0.94336,1.34854 -0.77655,1.57832 0.13351,0.18391 0.59008,0.77218 1.01459,1.30727 l 0.77184,0.97289 -0.80652,0.80652 -0.80652,0.80652 -1.17919,-0.69105 c -0.64856,-0.38008 -1.24337,-0.69105 -1.3218,-0.69105 -0.0784,0 -0.39871,0.59531 -0.71171,1.32291 -0.6148198,1.42918 -0.8370598,1.51654 -2.4064798,0.94602 z m 46.6475678,-0.79798 -0.74236,-0.64571 0.71479,-1.28872 0.7148,-1.28873 -1.44147,-0.77754 c -1.51062,-0.81484 -1.54359,-0.87158 -1.27797,-2.19968 0.16446,-0.82228 0.17463,-0.82682 1.85209,-0.82682 h 1.68672 l 0.004,-1.25677 c 0.005,-1.70718 0.23168,-1.99726 1.38816,-1.7803 0.98274,0.18436 1.24279,0.60652 1.25001,2.02927 0.005,0.96768 0.28368,1.07221 1.61073,0.604 0.62386,-0.22011 1.22079,-0.3086 1.3265,-0.19664 0.10571,0.11196 0.32488,0.67982 0.48704,1.2619 0.28742,1.03172 0.27076,1.07955 -0.6625,1.90227 l -0.95734,0.84395 0.72509,0.95064 0.72508,0.95064 -0.57544,0.61253 c -0.3165,0.3369 -0.87153,0.77099 -1.23341,0.96467 -0.60794,0.32535 -0.72885,0.28341 -1.59058,-0.55181 l -0.93262,-0.90393 -1.06686,1.12124 c -0.58678,0.61669 -1.11081,1.12125 -1.16451,1.12125 -0.0537,0 -0.43171,-0.29057 -0.84,-0.64571 z m 5.04335,-30.30216 c 1.29037,-0.135744 2.38506,-0.285739 2.43264,-0.333322 0.4544,-0.454401 1.43936,-13.401207 1.4337,-18.845226 -0.006,-5.53148 -0.25075,-7.888907 -1.08113,-10.402816 l -0.54814,-1.659448 -0.53067,0.674642 c -0.29187,0.371055 -0.98424,0.906034 -1.5386,1.188847 -0.85493,0.436155 -1.03048,0.455433 -1.15651,0.126998 -0.0935,-0.243787 0.11755,-0.526235 0.56992,-0.762551 1.79988,-0.940252 2.89107,-2.88703 3.68821,-6.580113 0.93028,-4.309883 0.45416,-20.0440366 -0.66717,-22.0477357 -0.16419,-0.293386 -0.75031,0.402411 -2.29721,2.7270451 -2.81413,4.229008 -4.56496,6.3885666 -7.4639,9.2063466 -1.34741,1.309688 -2.87391,3.095625 -3.39223,3.96875 -1.88403,3.173759 -2.50738,6.926408 -1.48398,8.933757 0.40797,0.800214 0.43455,1.028113 0.14768,1.266195 -0.27276,0.226373 -0.47643,0.04219 -0.92444,-0.835982 -0.81682,-1.601097 -0.64285,-4.913768 0.39199,-7.464269 0.40268,-0.992455 0.67345,-1.863153 0.60172,-1.934884 -0.0717,-0.07173 -1.12503,-0.311925 -2.34067,-0.533766 -3.07226,-0.560651 -12.407338,-0.564601 -15.931318,-0.0067 -1.4347,0.22712 -2.65973,0.464118 -2.72227,0.526662 -0.0625,0.06254 0.12904,0.989736 0.42575,2.060427 0.63518,2.292147 0.7183,5.66234 0.17083,6.926787 -0.57099,1.318744 -1.13759,1.954633 -1.45954,1.638022 -0.19142,-0.188248 -0.075,-0.669316 0.37906,-1.566193 1.15581,-2.283008 0.78318,-5.71422 -1.03595,-9.539182 -0.84846,-1.784002 -1.9689,-3.384304 -4.5385,-6.482291 C 19.01729,9.0792814 17.76034,6.9137634 16.50658,3.8790832 15.91379,2.4442593 15.30972,1.2701753 15.1642,1.2700083 c -0.43244,-5.03e-4 -1.92583,3.7606661 -2.88994,7.2784491 -1.35976,4.9613416 -1.50336,4.4406706 1.43821,5.2146356 1.38436,0.364243 2.65644,0.753738 2.82685,0.865545 0.34755,0.228035 0.17162,1.968341 -0.25361,2.508694 -0.17816,0.2264 -1.12148,0.330729 -2.99038,0.330729 -3.9260598,0 -3.8199198,0.750375 0.116,0.820124 2.38255,0.04222 2.77885,0.233526 2.98336,1.440137 0.11739,0.692547 0.0664,1.162913 -0.15063,1.389306 -0.18046,0.188251 -1.56881,0.551522 -3.08523,0.807265 l -2.75713,0.464992 0.0507,2.073061 c 0.0611,2.501119 1.00924,4.715084 2.38654,5.572823 0.85489,0.532392 1.15419,1.192123 0.53936,1.188882 -0.91933,-0.0048 -2.24065,-1.323425 -3.10322,-3.096768 l -0.4413198,-0.907299 -0.82454,1.546998 c -2.03572,3.819403 -2.89602,9.514559 -2.60959,17.275479 0.29132,7.893664 1.05033,12.976014 2.01498,13.492274 0.62299,0.333415 6.9137598,0.758709 12.5448998,0.848111 l 5.00153,0.07941 0.84389,-2.513542 c 0.46414,-1.382448 1.3014,-4.061354 1.86058,-5.953125 0.55918,-1.891771 1.2625,-3.718845 1.56292,-4.060169 0.54392,-0.61796 0.56413,-0.619815 4.77956,-0.438483 3.41076,0.146719 4.32123,0.267303 4.68569,0.620586 0.2488,0.241165 0.882928,1.986295 1.409188,3.878066 0.52626,1.891771 1.27738,4.50627 1.66915,5.809996 l 0.71232,2.370413 1.0535,0.225581 c 3.07718,0.658911 10.90255,0.901311 15.04128,0.465926 z M 11.07524,55.979458 c -0.54609,-0.657998 -0.22488,-1.543703 0.64938,-1.790607 0.68844,-0.194427 3.35496,-0.625491 9.50231,-1.536124 0.98169,-0.14542 1.74582,-0.134934 2.05052,0.02814 0.52855,0.282866 0.66103,1.424654 0.19848,1.710526 -0.25847,0.159745 -11.06465,1.965023 -11.78506,1.968809 -0.16409,7.94e-4 -0.44111,-0.170471 -0.61563,-0.380744 z m 45.231668,-0.05389 c -0.3638,-0.05476 -2.03068,-0.282694 -3.70417,-0.506534 -1.67349,-0.223837 -3.24497,-0.466571 -3.49219,-0.539406 -0.59112,-0.174154 -0.86721,-1.089856 -0.47214,-1.565889 0.24484,-0.295021 0.22088,-0.46864 -0.11043,-0.799952 -0.57932,-0.579315 -0.53058,-1.264449 0.13264,-1.864656 0.46184,-0.41796 1.06633,-0.519194 3.57593,-0.598858 3.7988,-0.120592 4.7965,0.0528 5.18285,0.900734 0.24081,0.528529 0.20706,0.742609 -0.18547,1.176354 -0.42485,0.469445 -0.81392,0.530241 -3.39337,0.530241 -1.60243,0 -2.8639,0.04955 -2.80327,0.110106 0.0606,0.06056 1.47946,0.28934 3.15295,0.50841 3.75731,0.49185 4.49792,0.75052 4.49792,1.570977 0,1.114213 -0.53472,1.356389 -2.38125,1.078473 z M 11.90982,52.604685 c -0.42037,-0.420373 -0.40322,-1.134065 0.036,-1.498597 0.19443,-0.161367 1.59342,-0.416709 3.10885,-0.567428 5.42657,-0.539703 5.46055,-0.597811 0.55658,-0.951757 -4.7424,-0.342283 -5.43138,-0.541578 -5.28849,-1.529733 0.10367,-0.716857 1.13024,-1.211657 2.5239,-1.216502 2.37579,-0.0083 9.21133,0.837899 9.792,1.212131 1.10759,0.713827 0.42918,1.952603 -1.07723,1.967015 -0.6994,0.0067 -0.76304,0.05345 -0.37798,0.277731 0.67596,0.39371 0.59401,1.52351 -0.13229,1.82372 -0.617,0.255032 -5.91032,0.80092 -7.7663,0.80092 -0.58166,0 -1.20043,-0.142875 -1.37506,-0.3175 z m 35.810298,-3.280003 c -0.51203,-0.512027 -0.52602,-1.267703 -0.0311,-1.678461 0.43175,-0.35832 4.06617,-0.947309 7.50585,-1.216392 1.99836,-0.156327 2.40116,-0.118219 2.78264,0.263265 0.52668,0.52668 0.57948,1.292477 0.11533,1.672789 -0.1819,0.149047 -1.99761,0.460494 -4.0349,0.692107 -2.03729,0.231614 -4.2047,0.478407 -4.81648,0.548426 -0.7854,0.08989 -1.23252,0.0071 -1.52135,-0.281734 z"
       id="path876" />
  </g>
</svg>
